<?xml version="1.0" encoding="utf-8"?>
<!-- Generator: Adobe Illustrator 23.0.0, SVG Export Plug-In . SVG Version: 6.00 Build 0)  -->
<svg version="1.1" id="Layer_1" xmlns="http://www.w3.org/2000/svg" xmlns:xlink="http://www.w3.org/1999/xlink" x="0px" y="0px"
	 viewBox="0 0 351.9 351.9" style="enable-background:new 0 0 351.9 351.9;" xml:space="preserve">
<style type="text/css">
	.st0{fill:#E8C36A;}
	.st1{fill:#00537D;}
	.st2{fill:none;}
	.st3{clip-path:url(#SVGID_2_);}
	.st4{fill-rule:evenodd;clip-rule:evenodd;fill:#3A3A3A;}
	.st5{clip-path:url(#SVGID_4_);}
	.st6{clip-path:url(#SVGID_6_);}
	.st7{fill:#0071AA;}
</style>
<circle class="st0" cx="175" cy="176.5" r="168.5"/>
<g id="covered-food-tray-on-a-hand-of-hotel-room-service" transform="translate(1.8 -17.528)">
	<g id="Group_274" transform="translate(0 19.328)">
		<g id="Path_102" transform="translate(-90.737 -19.328)">
			<path class="st2" d="M243.3,190.9c0.1-2,0.2-4,0.5-6.1c0.6-4.8,1.4-9.7,2.6-14.4c0.7-2.4,1.4-4.7,2.1-7c0.9-2.2,1.9-4.4,2.8-6.6
				c1.9-4.1,4.4-7.9,7.2-11.4c0.7-0.8,1.3-1.7,2-2.5c0.7-0.7,1.5-1.4,2.2-2.2c1.4-1.4,2.8-2.7,4.3-3.9c2.6-2.1,5.4-4,8.3-5.6
				c2.2-1.3,4.5-2.4,6.8-3.4c3.9-1.6,6.1-2.4,6.1-2.4s-1.9,1.5-5.2,3.9c-2,1.5-3.9,3-5.7,4.7c-2.4,2.1-4.6,4.3-6.7,6.6
				c-1.2,1.2-2.2,2.7-3.3,4.1c-0.6,0.7-1.1,1.4-1.7,2.2c-0.5,0.8-1,1.6-1.5,2.4c-2.1,3.4-3.9,7-5.4,10.7c-0.7,2-1.4,4-2.1,6
				c-0.5,2.1-1,4.2-1.6,6.4c-1,4.4-1.7,8.9-2.1,13.4c-0.3,1.7-0.4,3.3-0.5,5c36.3,0,64.4,0,103.8,0c0.1-1.7,0.2-3.5,0.2-5.2
				c0.5-32.2-23.2-59.7-55.2-64c4.2-3.9,4.4-10.4,0.5-14.5c-3.9-4.2-10.4-4.4-14.5-0.5s-4.4,10.4-0.5,14.5c0.2,0.2,0.3,0.4,0.5,0.5
				c-32,4.3-55.7,31.8-55.2,64c0,1.8,0.1,3.5,0.2,5.2L243.3,190.9z"/>
			<path class="st1" d="M356.2,191c0.1-1.7,0.2-3.5,0.2-5.2c0-33.1-24.1-60.4-55.2-64c2-1.9,3.3-4.5,3.3-7.5
				c0-5.7-4.6-10.3-10.3-10.3c-5.7,0-10.3,4.6-10.3,10.3c0,3,1.3,5.6,3.3,7.5c-31.1,3.6-55.2,30.9-55.2,64c0,1.7,0.1,3.5,0.2,5.2
				c3.8,0,7.5,0,11.2,0c0.1-2,0.2-4,0.5-6.1c0.5-4.8,1.5-9.7,2.6-14.4c0.7-2.4,1.4-4.7,2.1-7c0.9-2.2,1.9-4.4,2.8-6.6
				c2.1-4.2,4.4-8.1,7.2-11.4c0.7-0.8,1.3-1.7,2-2.5c0.7-0.7,1.5-1.4,2.2-2.2c1.5-1.4,2.8-2.8,4.3-3.9c3-2.2,5.6-4.3,8.3-5.6
				c2.6-1.4,4.8-2.7,6.8-3.4c3.9-1.6,6.1-2.4,6.1-2.4s-1.9,1.5-5.2,3.9c-1.7,1.1-3.5,2.9-5.7,4.7c-2.3,1.7-4.3,4.2-6.7,6.6
				c-1.2,1.2-2.2,2.7-3.3,4.1c-0.6,0.7-1.1,1.4-1.7,2.2c-0.5,0.8-1,1.6-1.5,2.4c-2.1,3.2-3.7,6.9-5.4,10.7c-0.7,2-1.4,4-2.1,6
				c-0.5,2.1-1,4.2-1.6,6.4c-0.9,4.4-1.7,8.8-2.1,13.4c-0.3,1.7-0.4,3.3-0.5,5C288.7,191,316.9,191,356.2,191 M361.9,197.1h-5.7
				c-22.6,0-41.9,0-60.5,0c-13.9,0-27.9,0-43.3,0l-6.7,0l0,0l-2.4,0l-11.2,0l-5.7,0l-0.4-5.6c-0.1-1.8-0.2-3.7-0.2-5.7
				c0-17.4,6.2-34.1,17.4-47.1c9.3-10.7,21.4-18.1,34.8-21.5c-0.2-1-0.3-2-0.3-3c0-9,7.4-16.4,16.4-16.4c4.4,0,8.5,1.7,11.6,4.8
				c3.1,3.1,4.8,7.2,4.8,11.6c0,1-0.1,2-0.3,3c13.3,3.3,25.5,10.8,34.8,21.5c11.3,13,17.5,29.7,17.5,47.1c0,1.8-0.1,3.7-0.2,5.7
				L361.9,197.1z"/>
		</g>
		<g id="Rectangle_646" transform="translate(12.149 26.777)">
			<rect x="117.8" y="150.9" class="st2" width="147.1" height="13"/>
			<path class="st1" d="M271,170H111.7v-25.2H271V170z M117.8,163.9h147.1v-13H117.8V163.9z"/>
		</g>
		<g id="Path_103" transform="translate(-50.854 -206.628)">
			<path class="st2" d="M267.5,406.5c-7.5,3.6-33.5,13-33.5,13l-30.8-1.9c0,0,17.6-4.9,24.5-6.4c2.6-0.3,4.4-2.7,4-5.2
				c-0.3-2.1-1.9-3.7-3.9-4c-3.8,0-36.8,1.4-36.8,1.4l-21.9,7.9l5.8,36.7c0,0,4.5-7.7,9-7.7c4.5,0,43.6,1,48.9,0
				s37.7-23.2,41.5-25.8C278.1,411.8,275,402.9,267.5,406.5z"/>
			<path class="st1" d="M227.7,401.9c-3.8,0-36.8,1.4-36.8,1.4l-21.9,7.9l5.8,36.7c0,0,4.5-7.7,9-7.7c3,0,21.4,0.5,34.9,0.5
				c6.7,0,12.3-0.1,14-0.5c5.3-1.1,37.7-23.2,41.5-25.8c3.2-2.1,1.6-8.7-3.4-8.7c-1,0-2.1,0.3-3.3,0.9c-7.5,3.6-33.5,13-33.5,13
				l-30.8-1.9c0,0,17.6-4.9,24.5-6.4C234.4,409.6,231.4,401.9,227.7,401.9 M227.7,395.8c5,0,9.5,4.3,10.1,9.8
				c0.2,2.2-0.2,4.5-1.4,6.6c7.7-2.8,23.2-8.6,28.5-11.2c2-1,4-1.5,6-1.5c2.6,0,5.1,0.9,7.1,2.5c1.7,1.4,3,3.3,3.6,5.5
				c1.4,4.6-0.2,9.4-3.9,11.9c-0.4,0.3-1.1,0.7-2,1.4c-33,22.2-38.8,24.7-41.7,25.3c-1.5,0.3-4.4,0.6-15.2,0.6
				c-9.2,0-20.5-0.2-28-0.4c-3-0.1-5.4-0.1-6.5-0.1c-1,0.5-2.9,2.8-4.1,4.7l-9.1,10.3l-2.7-17.1l-5.3-32l-0.8-5l4.8-1.7l21.9-7.9
				l0.9-0.3l0.9,0C192,397.1,223.8,395.8,227.7,395.8z"/>
		</g>
		<g id="Path_104" transform="translate(0 -221.762)">
			<path class="st2" d="M88.7,430.3v47.5l33.5-6.3l-8.4-45.7L88.7,430.3z"/>
			<path class="st1" d="M113.9,425.8l-25.2,4.4v47.5l33.5-6.3L113.9,425.8 M118.8,418.8l1.1,6l8.4,45.7l1.1,6l-6,1.1l-33.5,6.3
				l-7.2,1.4v-7.4v-47.5v-5.1l5-0.9l25.2-4.4L118.8,418.8z"/>
		</g>
	</g>
</g>
</svg>
