<?xml version="1.0" encoding="utf-8"?>
<!-- Generator: Adobe Illustrator 23.0.0, SVG Export Plug-In . SVG Version: 6.00 Build 0)  -->
<svg version="1.1" id="Layer_1" xmlns="http://www.w3.org/2000/svg" xmlns:xlink="http://www.w3.org/1999/xlink" x="0px" y="0px"
	 viewBox="0 0 351.9 351.9" style="enable-background:new 0 0 351.9 351.9;" xml:space="preserve">
<style type="text/css">
	.st0{fill:#E8C36A;}
	.st1{fill:#00537D;}
	.st2{fill:none;}
	.st3{clip-path:url(#SVGID_2_);}
	.st4{fill-rule:evenodd;clip-rule:evenodd;fill:#3A3A3A;}
	.st5{clip-path:url(#SVGID_4_);}
	.st6{clip-path:url(#SVGID_6_);}
	.st7{fill:#0071AA;}
</style>
<circle class="st0" cx="176.5" cy="176.5" r="168.5"/>
<g>
	<g id="Group_218">
		<g id="Group_217">
			<path id="Path_12" class="st1" d="M244.8,106.2h-15.4v-4.5c0-5.4-4.3-9.7-9.7-9.7c-5.4,0-9.7,4.3-9.7,9.7v4.5h-54.3v-4.5
				c0-5.4-4.3-9.7-9.7-9.7s-9.7,4.3-9.7,9.7v4.6c-0.3-0.1-0.6-0.1-0.9-0.1h-12.9c-8.9,0-16.2,7.2-16.2,16.2v55.1
				c0,1.8,1.4,3.2,3.2,3.2c1.8,0,3.2-1.4,3.2-3.2v-38h116.6c1.8,0,3.2-1.4,3.2-3.2s-1.4-3.2-3.2-3.2H112.8v-10.7
				c0-5.4,4.3-9.7,9.7-9.7h12.9c0.3,0,0.6,0,0.9-0.1v4.2c0,5.4,4.3,9.7,9.7,9.7s9.7-4.3,9.7-9.7v-4H210v4c0,5.4,4.3,9.7,9.7,9.7
				c5.4,0,9.7-4.3,9.7-9.7v-4h15.4c5.4,0,9.7,4.3,9.7,9.7v122.9c0,3.2-2.6,5.8-5.8,5.8c-3.2,0-5.8-2.6-5.8-5.8v-8.4
				c0-1.8-1.4-3.2-3.2-3.2h0H202c-1.8,0-3.2,1.5-3.2,3.2c0,1.8,1.4,3.2,3.2,3.2h34.4v5.1c0,2,0.5,4,1.5,5.8H107.7
				c-3.2,0-5.8-2.6-5.8-5.8v-5.1h72.4c1.8,0,3.2-1.5,3.2-3.2c0-1.8-1.4-3.2-3.2-3.2h-32.3c11.1-9.5,12.4-26.3,2.8-37.4
				c-9.5-11.1-26.3-12.4-37.4-2.8c-11.1,9.5-12.4,26.3-2.8,37.4c0.9,1,1.8,2,2.8,2.8h-8.7c-1.8,0-3.2,1.4-3.2,3.2l0,0v8.4
				c0,6.8,5.5,12.3,12.3,12.3h141c6.8,0,12.3-5.5,12.3-12.3V122.4C261,113.5,253.7,106.2,244.8,106.2z M149.2,116.7
				c0,1.8-1.4,3.2-3.2,3.2s-3.2-1.4-3.2-3.2v-15c0-1.8,1.4-3.2,3.2-3.2s3.2,1.4,3.2,3.2V116.7z M222.9,116.7c0,1.8-1.5,3.2-3.2,3.2
				c-1.8,0-3.2-1.4-3.2-3.2v-15c0-1.8,1.4-3.2,3.2-3.2c1.8,0,3.2,1.4,3.2,3.2c0,0,0,0,0,0V116.7z M104.6,213.6
				c0-11.1,9-20.1,20.1-20.1s20.1,9,20.1,20.1c0,11.1-9,20.1-20.1,20.1C113.6,233.7,104.6,224.7,104.6,213.6z"/>
		</g>
	</g>
	<g id="Group_220" transform="translate(47.197 13.283)">
		<g id="Group_219">
			<path id="Path_13" class="st1" d="M199.6,120.7c-1.3-1.3-3.3-1.3-4.6,0c-1.3,1.3-1.3,3.3,0,4.6c1.3,1.3,3.3,1.3,4.6,0
				c0.6-0.6,0.9-1.4,0.9-2.3C200.6,122.2,200.2,121.3,199.6,120.7z"/>
		</g>
	</g>
	<g id="Group_222" transform="translate(29.451 45.825)">
		<g id="Group_221">
			<path id="Path_14" class="st1" d="M162.5,188.8c-1.3-1.3-3.3-1.3-4.6,0c-1.3,1.3-1.3,3.3,0,4.6c1.3,1.3,3.3,1.3,4.6,0
				c0.6-0.6,0.9-1.4,0.9-2.3C163.5,190.3,163.1,189.4,162.5,188.8z"/>
		</g>
	</g>
	<g id="Group_224" transform="translate(19.689 31.796)">
		<g id="Group_223">
			<path id="Path_15" class="st1" d="M148.9,158.5c-6.8,0-12.3,5.5-12.3,12.3s5.5,12.3,12.3,12.3c6.8,0,12.3-5.5,12.3-12.3
				C161.1,164,155.6,158.5,148.9,158.5z M148.9,176.6c-3.2,0-5.8-2.6-5.8-5.8c0-3.2,2.6-5.8,5.8-5.8c3.2,0,5.8,2.6,5.8,5.8l0,0
				C154.7,174,152.1,176.6,148.9,176.6z"/>
		</g>
	</g>
	<g id="Group_226" transform="translate(29.451 31.796)">
		<g id="Group_225">
			<path id="Path_16" class="st1" d="M169.3,158.5c-6.8,0-12.3,5.5-12.3,12.3c0,6.8,5.5,12.3,12.3,12.3c6.8,0,12.3-5.5,12.3-12.3
				C181.6,164,176.1,158.5,169.3,158.5z M169.3,176.6c-3.2,0-5.8-2.6-5.8-5.8c0-3.2,2.6-5.8,5.8-5.8s5.8,2.6,5.8,5.8l0,0
				C175.1,174,172.5,176.6,169.3,176.6z"/>
		</g>
	</g>
	<g id="Group_228" transform="translate(39.213 31.796)">
		<g id="Group_227">
			<path id="Path_17" class="st1" d="M189.7,158.5c-6.8,0-12.3,5.5-12.3,12.3c0,6.8,5.5,12.3,12.3,12.3c6.8,0,12.3-5.5,12.3-12.3
				C202,164,196.5,158.5,189.7,158.5z M189.7,176.6c-3.2,0-5.8-2.6-5.8-5.8c0-3.2,2.6-5.8,5.8-5.8c3.2,0,5.8,2.6,5.8,5.8l0,0
				C195.5,174,192.9,176.6,189.7,176.6z"/>
		</g>
	</g>
	<g id="Group_230" transform="translate(9.927 20.919)">
		<g id="Group_229">
			<path id="Path_18" class="st1" d="M128.4,135.8c-6.8,0-12.3,5.5-12.3,12.3c0,6.8,5.5,12.3,12.3,12.3c6.8,0,12.3-5.5,12.3-12.3
				C140.7,141.3,135.2,135.8,128.4,135.8z M128.4,153.9c-3.2,0-5.8-2.6-5.8-5.8c0-3.2,2.6-5.8,5.8-5.8c3.2,0,5.8,2.6,5.8,5.8l0,0
				C134.2,151.3,131.6,153.9,128.4,153.9z"/>
		</g>
	</g>
	<g id="Group_232" transform="translate(29.451 20.919)">
		<g id="Group_231">
			<path id="Path_19" class="st1" d="M169.3,135.8c-6.8,0-12.3,5.5-12.3,12.3c0,6.8,5.5,12.3,12.3,12.3c6.8,0,12.3-5.5,12.3-12.3
				C181.6,141.3,176.1,135.8,169.3,135.8z M169.3,153.9c-3.2,0-5.8-2.6-5.8-5.8s2.6-5.8,5.8-5.8c3.2,0,5.8,2.6,5.8,5.8c0,0,0,0,0,0
				C175.1,151.3,172.5,153.9,169.3,153.9z"/>
		</g>
	</g>
	<g id="Group_234" transform="translate(39.213 20.919)">
		<g id="Group_233">
			<path id="Path_20" class="st1" d="M189.7,135.8c-6.8,0-12.3,5.5-12.3,12.3c0,6.8,5.5,12.3,12.3,12.3c6.8,0,12.3-5.5,12.3-12.3
				C202,141.3,196.5,135.8,189.7,135.8z M189.7,153.9c-3.2,0-5.8-2.6-5.8-5.8s2.6-5.8,5.8-5.8c3.2,0,5.8,2.6,5.8,5.8c0,0,0,0,0,0
				C195.5,151.3,192.9,153.9,189.7,153.9z"/>
		</g>
	</g>
	<g id="Group_236" transform="translate(19.689 20.919)">
		<g id="Group_235">
			<path id="Path_21" class="st1" d="M148.9,135.8c-6.8,0-12.3,5.5-12.3,12.3s5.5,12.3,12.3,12.3s12.3-5.5,12.3-12.3
				C161.1,141.3,155.6,135.8,148.9,135.8z M148.9,153.9c-3.2,0-5.8-2.6-5.8-5.8c0-3.2,2.6-5.8,5.8-5.8c3.2,0,5.8,2.6,5.8,5.8
				c0,0,0,0,0,0C154.7,151.3,152.1,153.9,148.9,153.9z"/>
		</g>
	</g>
	<g id="Group_238" transform="translate(5.355 36.472)">
		<g id="Group_237">
			<path id="Path_22" class="st1" d="M130.8,169.3c-1.3-1.3-3.3-1.3-4.6,0l-10.5,10.5l-3.6-3.6c-1.2-1.3-3.3-1.3-4.6-0.1
				c-1.3,1.2-1.3,3.3-0.1,4.6c0,0,0.1,0.1,0.1,0.1l5.9,5.9c1.3,1.3,3.3,1.3,4.6,0l12.8-12.8C132,172.6,132,170.5,130.8,169.3z"/>
		</g>
	</g>
</g>
</svg>
