<?xml version="1.0" encoding="utf-8"?>
<!-- Generator: Adobe Illustrator 23.0.0, SVG Export Plug-In . SVG Version: 6.00 Build 0)  -->
<svg version="1.1" id="Layer_1" xmlns="http://www.w3.org/2000/svg" xmlns:xlink="http://www.w3.org/1999/xlink" x="0px" y="0px"
	 viewBox="0 0 351.9 351.9" style="enable-background:new 0 0 351.9 351.9;" xml:space="preserve">
<style type="text/css">
	.st0{fill:#E8C36A;}
	.st1{fill:#00537D;}
	.st2{fill:none;}
	.st3{clip-path:url(#SVGID_2_);}
	.st4{fill-rule:evenodd;clip-rule:evenodd;fill:#3A3A3A;}
	.st5{clip-path:url(#SVGID_4_);}
	.st6{clip-path:url(#SVGID_6_);}
	.st7{fill:#0071AA;}
</style>
<circle class="st0" cx="175" cy="176.5" r="168.5"/>
<g id="car-compact" transform="translate(0.9 0.9)">
	<path class="st1" d="M258,256.2h-18.9c-6.7,0-12.1-5.4-12.1-12.1v-15.7h-99.9V244c0,6.7-5.4,12.1-12.1,12.1H95
		c-6.7,0-12.1-5.4-12.1-12.1v-36.3c0-1.2,0.2-2.4,0.6-3.6c-0.4-1.8-0.6-3.6-0.6-5.4v-12.2c0-5,1.4-9.8,4-14l16.5-39.2
		c5.6-16,13.6-33.2,35.7-33.2h76.4c21.6,0,30.2,16.9,35.8,33.5l0.1,0.4l15.9,39.3c0.2,0.8,0.4,1.5,0.5,2.3c1.5,3.4,2.4,7.2,2.4,10.9
		v12.2c0,1.8-0.2,3.6-0.6,5.4c0.4,1.2,0.6,2.4,0.6,3.6V244C270.2,250.7,264.7,256.2,258,256.2z M122.2,223.4H232V244
		c0,3.9,3.2,7.1,7.1,7.1H258c3.9,0,7.1-3.2,7.1-7.1v-36.3c0-0.9-0.2-1.7-0.5-2.5l-0.3-0.7l0.2-0.8c0.4-1.6,0.6-3.3,0.6-4.9v-12.2
		c0-3.1-0.7-6.3-2-9.1l-0.2-0.6c-0.1-0.7-0.3-1.4-0.5-2.1l-16-39.7c-6-18-13.6-30-31-30h-76.4c-18.9,0-25.4,14.2-31,30L91.2,175
		c-2.2,3.5-3.4,7.5-3.4,11.6v12.2c0,1.7,0.2,3.3,0.6,4.9l0.2,0.8l-0.3,0.7c-0.3,0.8-0.5,1.7-0.5,2.5V244c0,3.9,3.2,7.1,7.1,7.1h20
		c3.9,0,7.1-3.2,7.1-7.1V223.4z M246.3,205.9h-21.1c-5.2,0-9.4-4.2-9.4-9.4c0-5.2,4.2-9.4,9.4-9.4h21.1c5.2,0,9.4,4.2,9.4,9.4
		C255.7,201.7,251.4,205.9,246.3,205.9z M225.2,192.1c-2.4,0-4.4,2-4.4,4.4s2,4.4,4.4,4.4h21.1c2.4,0,4.4-2,4.4-4.4s-2-4.4-4.4-4.4
		H225.2z M127.4,205.9h-21.1c-5.2,0-9.4-4.2-9.4-9.4c0-5.2,4.2-9.4,9.4-9.4h21.1c5.2,0,9.4,4.2,9.4,9.4
		C136.8,201.7,132.5,205.9,127.4,205.9z M106.3,192.1c-2.4,0-4.4,2-4.4,4.4s2,4.4,4.4,4.4h21.1c2.4,0,4.4-2,4.4-4.4s-2-4.4-4.4-4.4
		H106.3z M202,204.5h-49.1c-1.8,0-3.6-0.7-4.9-2c-1.3-1.3-2-3-2-4.9c0-3.8,3.1-6.9,6.9-6.9H202c0,0,0,0,0,0c1.8,0,3.5,0.7,4.8,2
		c1.3,1.3,2,3,2,4.8C208.8,201.4,205.8,204.5,202,204.5z M152.9,195.8c-1,0-1.9,0.8-1.9,1.9c0,0.5,0.2,1,0.5,1.3
		c0.4,0.4,0.8,0.5,1.3,0.5H202h0c1,0,1.9-0.8,1.9-1.9c0-1-0.8-1.9-1.9-1.9h0H152.9z M253.7,166.1l-5.9-2.2c-3.6-1.3-7.5-2-11.3-2
		c0,0-0.1,0-0.1,0H116.7c0,0,0,0,0,0c-3.5,0-7,0.6-10.3,1.7l-5.8,1.9l14.7-28.2c5.8-16.4,11.2-24.7,23.9-24.7h76.4
		c12.9,0,18.8,9.4,23.9,24.7L253.7,166.1z M236.5,156.9c2.5,0,5,0.2,7.5,0.7l-9.2-18.7c-6.1-18-11.5-21.4-19.2-21.4h-76.4
		c-8,0-12.7,3.1-19.3,21.6l-0.1,0.3l-9.4,18c2.1-0.4,4.2-0.5,6.3-0.5c0,0,0,0,0.1,0H236.5C236.4,156.9,236.4,156.9,236.5,156.9z"/>
</g>
</svg>
