<?xml version="1.0" encoding="utf-8"?>
<!-- Generator: Adobe Illustrator 23.0.0, SVG Export Plug-In . SVG Version: 6.00 Build 0)  -->
<svg version="1.1" id="Layer_1" xmlns="http://www.w3.org/2000/svg" xmlns:xlink="http://www.w3.org/1999/xlink" x="0px" y="0px"
	 viewBox="0 0 351.9 351.9" style="enable-background:new 0 0 351.9 351.9;" xml:space="preserve">
<style type="text/css">
	.st0{fill:#E8C36A;}
	.st1{fill:#00537D;}
	.st2{fill:none;}
	.st3{clip-path:url(#SVGID_2_);}
	.st4{fill-rule:evenodd;clip-rule:evenodd;fill:#3A3A3A;}
	.st5{clip-path:url(#SVGID_4_);}
	.st6{clip-path:url(#SVGID_6_);}
	.st7{fill:#0071AA;}
</style>
<g id="Group_356">
	<g id="Group_355">
		<path id="Path_134" class="st7" d="M266.2,44.3c-4.4,0-8,3.6-8,8c0,0,0,0,0,0v14.4C197.2,20,109.9,31.5,63.1,92.5
			c-18.6,24.3-28.7,54.1-28.7,84.7c-0.1,36.9,14.6,72.3,40.8,98.4c3.1,3.1,8.2,3.1,11.4,0s3.1-8.2,0-11.4l0,0
			c-48.1-48.1-48-126,0.1-174.1c42.3-42.3,108.8-48,157.7-13.7h-10.2c-4.4,0-8,3.6-8,8c0,4.4,3.6,8,8,8h32.1c0.3,0,0.5,0,0.8,0l0,0
			c0.2,0,0.4-0.1,0.7-0.1h0.1c0.2,0,0.4-0.1,0.6-0.2h0.1c0.2-0.1,0.4-0.1,0.6-0.2l0.2-0.1c0.2-0.1,0.4-0.2,0.6-0.3l0.2-0.1
			c0.2-0.1,0.4-0.2,0.6-0.3l0.1-0.2c0.9-0.6,1.7-1.4,2.3-2.3l0.1-0.1c0.1-0.2,0.2-0.4,0.3-0.6l0.1-0.2c0.1-0.2,0.2-0.4,0.3-0.6
			l0.1-0.2c0.1-0.2,0.1-0.4,0.2-0.6v-0.1c0.1-0.2,0.1-0.4,0.2-0.6c0,0,0-0.1,0-0.1c0.1-0.5,0.1-1,0.1-1.4V52.3
			C274.2,47.9,270.6,44.3,266.2,44.3z"/>
	</g>
</g>
<g id="Group_358" transform="translate(6.145 12.365)">
	<g id="Group_357">
		<path id="Path_135" class="st7" d="M120.4,164.8c9.5-3.5,14.4-14,10.9-23.5c-2.6-7.2-9.5-12-17.2-12H87.7c-4.4,0-8,3.6-8,8
			c0,4.4,3.6,8,8,8h26.4c1.3,0,2.3,1,2.3,2.3c0,1-0.7,2-1.7,2.2l-17.5,4.4c-5.9,1.5-9.4,7.4-8,13.3c1,3.9,4.1,7,8,8l17.5,4.4
			c1.2,0.3,2,1.5,1.7,2.8c-0.3,1-1.2,1.7-2.2,1.7H87.7c-4.4,0-8,3.6-8,8c0,4.4,3.6,8,8,8h26.4c10.1,0,18.3-8.2,18.3-18.3
			C132.4,174.3,127.6,167.4,120.4,164.8L120.4,164.8z"/>
	</g>
</g>
<g id="Group_360" transform="translate(13.459 12.365)">
	<g id="Group_359">
		<path id="Path_136" class="st7" d="M164.6,156.7h-14.9V151c0-3.2,2.6-5.7,5.7-5.7h0h22.9c4.4,0,8-3.6,8-8c0-4.4-3.6-8-8-8h-22.9
			c-12,0-21.8,9.8-21.8,21.8v0v27.5c0,12,9.8,21.8,21.8,21.8h0h9.2c12,0,21.8-9.7,21.8-21.8C186.4,166.5,176.7,156.8,164.6,156.7
			C164.6,156.7,164.6,156.7,164.6,156.7L164.6,156.7z M164.6,184.3h-9.2c-3.2,0-5.7-2.6-5.7-5.7v0v-5.7h14.9
			c3.2-0.1,5.8,2.3,5.9,5.5s-2.3,5.8-5.5,5.9C164.9,184.3,164.8,184.3,164.6,184.3L164.6,184.3z"/>
	</g>
</g>
<g id="Group_362" transform="translate(20.773 12.365)">
	<g id="Group_361">
		<path id="Path_137" class="st7" d="M218.6,129.3h-9.2c-12,0-21.8,9.8-21.8,21.8v0v27.5c0,12,9.8,21.8,21.8,21.8l0,0h9.2
			c12,0,21.8-9.8,21.8-21.8v0V151C240.4,139,230.6,129.3,218.6,129.3z M224.3,178.5c0,3.2-2.6,5.7-5.7,5.7h-9.2
			c-3.2,0-5.7-2.6-5.7-5.7V151c0-3.2,2.6-5.7,5.7-5.7h9.2c3.2,0,5.7,2.6,5.7,5.7V178.5z"/>
	</g>
</g>
<g id="Group_364" transform="translate(15.255 31.291)">
	<g id="Group_363">
		<path id="Path_138" class="st7" d="M161.4,268.9c-2.1,0.1-4.2,0.1-6.3,0c-4.4-0.2-8.2,3.2-8.4,7.7c-0.2,4.4,3.2,8.2,7.7,8.4
			c0.1,0,0.2,0,0.3,0c1.2,0,2.3,0,3.5,0s2.4,0,3.6,0c4.4,0,8-3.6,8-8.1c0-4.4-3.6-8-8.1-8C161.6,268.9,161.5,268.9,161.4,268.9
			L161.4,268.9z"/>
	</g>
</g>
<g id="Group_366" transform="translate(30.656 11.205)">
	<g id="Group_365">
		<path id="Path_139" class="st7" d="M278.1,133.3c-0.5-2.3-1.2-4.6-1.8-6.8c-1.3-4.3-5.7-6.7-10-5.4c-4.3,1.3-6.7,5.7-5.4,10l0,0
			c0.6,2,1.1,4,1.6,6c1,4.3,5.4,7,9.7,5.9S279.1,137.6,278.1,133.3L278.1,133.3z"/>
	</g>
</g>
<g id="Group_368" transform="translate(7.482 28.999)">
	<g id="Group_367">
		<path id="Path_140" class="st7" d="M107.2,256.3c-1.8-1-3.6-2-5.4-3.1c-3.9-2.2-8.8-0.8-10.9,3c-2.1,3.7-1,8.3,2.6,10.6
			c2,1.2,4,2.4,6.1,3.5c3.9,2.1,8.8,0.5,10.8-3.4C112.4,263.2,111,258.4,107.2,256.3L107.2,256.3z"/>
	</g>
</g>
<g id="Group_370" transform="translate(11.217 30.659)">
	<g id="Group_369">
		<path id="Path_141" class="st7" d="M133.4,266.2c-2-0.5-4-1-6-1.6c-4.3-1.3-8.7,1.2-10,5.4c-1.3,4.3,1.2,8.7,5.4,10
			c2.2,0.7,4.5,1.3,6.8,1.8c4.3,1.1,8.7-1.5,9.7-5.8c1.1-4.3-1.5-8.7-5.8-9.7C133.6,266.2,133.5,266.2,133.4,266.2L133.4,266.2z"/>
	</g>
</g>
<g id="Group_372" transform="translate(28.992 7.472)">
	<g id="Group_371">
		<path id="Path_142" class="st7" d="M266.7,103.1c-1.1-2.1-2.3-4.1-3.5-6.1c-2.4-3.7-7.4-4.7-11.1-2.3c-3.5,2.3-4.6,7-2.6,10.6
			c1.1,1.8,2.1,3.6,3.1,5.4c2.1,3.9,7,5.3,10.9,3.2C267.4,111.8,268.8,107,266.7,103.1L266.7,103.1z"/>
	</g>
</g>
<g id="Group_374" transform="translate(19.319 30.657)">
	<g id="Group_373">
		<path id="Path_143" class="st7" d="M199,270c-1.3-4.3-5.7-6.7-10-5.4c0,0,0,0,0,0c-2,0.6-4,1.1-6,1.6c-4.3,1-7,5.3-6,9.6
			c1,4.3,5.3,7,9.6,6c0.1,0,0.1,0,0.2,0c2.3-0.5,4.6-1.2,6.8-1.8C197.9,278.7,200.3,274.2,199,270z"/>
	</g>
</g>
<g id="Group_376" transform="translate(30.661 19.306)">
	<g id="Group_375">
		<path id="Path_144" class="st7" d="M272.2,180.7c-4.3-1-8.6,1.6-9.7,5.9c0,0,0,0,0,0c-0.5,2-1,4-1.6,6c-1.3,4.2,1.1,8.7,5.4,10
			c4.2,1.3,8.7-1.1,10-5.4c0,0,0-0.1,0-0.1c0.7-2.2,1.3-4.5,1.8-6.8C279.2,186.1,276.5,181.7,272.2,180.7z"/>
	</g>
</g>
<g id="Group_378" transform="translate(29.002 23.12)">
	<g id="Group_377">
		<path id="Path_145" class="st7" d="M263.5,209.6c-3.9-2.1-8.8-0.7-10.9,3.2c0,0,0,0,0,0c-1,1.8-2,3.6-3.1,5.4
			c-2.4,3.7-1.3,8.7,2.5,11.1c3.7,2.4,8.7,1.3,11.1-2.5c0-0.1,0.1-0.2,0.1-0.2c1.2-2,2.4-4.1,3.5-6.1
			C268.8,216.6,267.4,211.7,263.5,209.6z"/>
	</g>
</g>
<g id="Group_380" transform="translate(26.432 26.425)">
	<g id="Group_379">
		<path id="Path_146" class="st7" d="M247.6,235.2c-3.2-3.1-8.3-2.9-11.3,0.3c-1.4,1.5-2.9,3-4.4,4.4c-3.2,3.1-3.3,8.1-0.3,11.3
			c3.1,3.2,8.1,3.3,11.3,0.3c1.7-1.6,3.4-3.3,5-5C251,243.3,250.8,238.2,247.6,235.2z"/>
	</g>
</g>
<g id="Group_382" transform="translate(31.291 15.242)">
	<g id="Group_381">
		<path id="Path_147" class="st7" d="M281.3,158.3c-0.1-4.4-3.7-7.8-8-7.8h-0.2c-4.4,0.1-7.9,3.8-7.8,8.2c0,1.1,0,2.1,0,3.2s0,2,0,3
			c-0.1,4.4,3.4,8.1,7.8,8.2c0,0,0,0,0,0h0.2c4.4,0,7.9-3.5,8-7.8c0-1.1,0-2.3,0-3.4S281.3,159.5,281.3,158.3z"/>
	</g>
</g>
<g id="Group_384" transform="translate(23.132 28.996)">
	<g id="Group_383">
		<path id="Path_148" class="st7" d="M225.6,255.8c-2.3-3.8-7.3-5-11-2.7c0,0,0,0,0,0c-1.8,1.1-3.6,2.1-5.4,3.1
			c-3.9,2.1-5.3,7-3.2,10.9c2.1,3.9,7,5.3,10.9,3.2l0,0c2.1-1.1,4.1-2.3,6.1-3.5C226.8,264.5,228,259.6,225.6,255.8
			C225.6,255.8,225.6,255.8,225.6,255.8z"/>
	</g>
</g>
</svg>
