<?xml version="1.0" encoding="utf-8"?>
<!-- Generator: Adobe Illustrator 23.0.0, SVG Export Plug-In . SVG Version: 6.00 Build 0)  -->
<svg version="1.1" id="Capa_1" xmlns="http://www.w3.org/2000/svg" xmlns:xlink="http://www.w3.org/1999/xlink" x="0px" y="0px"
	 viewBox="0 0 512 512" style="enable-background:new 0 0 512 512;" xml:space="preserve">
<style type="text/css">
	.st0{fill:#4F4F4F;}
</style>
<g>
	<g>
		<path class="st0" d="M448.5,220.5V220v-34.8c0-34.8-24.5-47.6-47.6-47.6H109.5c-23,0-47.6,12.3-47.6,47.6V220v0.5
			c-23,2.6-45,17.9-45,53.2v33.9c0,10.2,8.2,18.4,18.4,18.4h6.1v12.4c0,10.2,8.2,18.4,18.4,18.4h17.4c10.2,0,18.4-8.2,18.4-18.4
			v-12.9h320.6v12.9c0,10.2,8.2,18.4,18.4,18.4H452c10.2,0,18.4-8.2,18.4-18.4v-12.9h6.1c10.2,0,18.4-8.2,18.4-18.4v-33.4
			C493.5,238.4,471.6,223.1,448.5,220.5z M79.4,185.3h1c0-24,15.9-29.1,29.1-29.1H401c13.3,0,29.1,5.1,29.1,29.1V220h-13.8v-12.8
			c0-10.2-8.2-18.4-18.4-18.4H285.4c-10.2,0-18.4,8.2-18.4,18.4V220h-21.5v-12.8c0-10.2-8.2-18.4-18.4-18.4H114.7
			c-10.2,0-18.4,8.2-18.4,18.4V220H79.4V185.3z M397.9,207.2V220H285.4v-12.8H397.9z M228.2,207.2V220H115.7v-12.8H228.2z
			 M76.8,338.4H59.4v-12.9h17.4V338.4z M451.1,338.4h-17.4v-12.9h17.4V338.4z M475.1,307.6h-24h-17.4H76.8H59.4H34.9v-27.1h440.2
			V307.6z M475.1,262.1H34.9v11.6c0-30.7,22.5-35.3,35.3-35.3h9.7h35.3h112.5h57.8H398h32.2h9.7c13.3,0,35.3,4.6,35.3,35.3
			L475.1,262.1L475.1,262.1z"/>
	</g>
</g>
<g>
	<path class="st0" d="M238.7,54.3h15.2v31.5h0.3l14.3-31.5h15.9l-15.5,34.2l14.9,32.7h-16.7l-12.9-27.8h-0.3v27.8h-15.2L238.7,54.3
		L238.7,54.3z"/>
</g>
</svg>
