<?xml version="1.0" encoding="utf-8"?>
<!-- Generator: Adobe Illustrator 23.0.0, SVG Export Plug-In . SVG Version: 6.00 Build 0)  -->
<svg version="1.1" id="Capa_1" xmlns="http://www.w3.org/2000/svg" xmlns:xlink="http://www.w3.org/1999/xlink" x="0px" y="0px"
	 viewBox="0 0 512 512" style="enable-background:new 0 0 512 512;" xml:space="preserve">
<style type="text/css">
	.st0{enable-background:new    ;}
	.st1{fill:#4F4F4F;}
</style>
<g class="st0">
	<path class="st1" d="M274,110.8l6.5,8.1l-8.6,6.4l-5.5-7c-3.2,1.8-6.8,2.7-11,2.7c-8.1,0-14.3-3.1-18.5-9.3
		c-4.2-6.2-6.4-15.1-6.4-26.8c0-10.8,2.1-19.2,6.4-25.2c4.3-6,10.2-9,17.8-9c8.1,0,14.3,3,18.6,9.1c4.3,6,6.4,14.7,6.4,25.9
		C279.8,96.2,277.8,104.7,274,110.8z M256.4,105.6l-6-7.6l8.5-6.4l3.9,5c0.5-2.3,0.7-6.1,0.7-11.3c0-13.1-2.9-19.6-8.7-19.6
		c-5.5,0-8.2,6.4-8.2,19.3c0,8.3,0.7,13.8,2.1,16.6c1.4,2.8,3.4,4.2,6,4.2C255.1,105.8,255.7,105.8,256.4,105.6z"/>
</g>
<g>
	<g>
		<path class="st1" d="M448.5,220.5V220v-34.8c0-34.8-24.5-47.6-47.6-47.6H109.5c-23,0-47.6,12.3-47.6,47.6V220v0.5
			c-23,2.6-45,17.9-45,53.2v33.9c0,10.2,8.2,18.4,18.4,18.4h6.1v12.4c0,10.2,8.2,18.4,18.4,18.4h17.4c10.2,0,18.4-8.2,18.4-18.4
			v-12.9h320.6v12.9c0,10.2,8.2,18.4,18.4,18.4H452c10.2,0,18.4-8.2,18.4-18.4v-12.9h6.1c10.2,0,18.4-8.2,18.4-18.4v-33.4
			C493.5,238.4,471.6,223.1,448.5,220.5z M79.4,185.3h1c0-24,15.9-29.1,29.1-29.1H401c13.3,0,29.1,5.1,29.1,29.1V220h-13.8v-12.8
			c0-10.2-8.2-18.4-18.4-18.4H285.4c-10.2,0-18.4,8.2-18.4,18.4V220h-21.5v-12.8c0-10.2-8.2-18.4-18.4-18.4H114.7
			c-10.2,0-18.4,8.2-18.4,18.4V220H79.4V185.3z M397.9,207.2V220H285.4v-12.8H397.9z M228.2,207.2V220H115.7v-12.8H228.2z
			 M76.8,338.4H59.4v-12.9h17.4V338.4z M451.1,338.4h-17.4v-12.9h17.4V338.4z M475.1,307.6h-24h-17.4H76.8H59.4H34.9v-27.1h440.2
			V307.6z M475.1,262.1H34.9v11.6c0-30.7,22.5-35.3,35.3-35.3h9.7h35.3h112.5h57.8H398h32.2h9.7c13.3,0,35.3,4.6,35.3,35.3
			L475.1,262.1L475.1,262.1z"/>
	</g>
</g>
</svg>
