<?xml version="1.0" encoding="utf-8"?>
<!-- Generator: Adobe Illustrator 23.0.0, SVG Export Plug-In . SVG Version: 6.00 Build 0)  -->
<svg version="1.1" id="Layer_1" xmlns="http://www.w3.org/2000/svg" xmlns:xlink="http://www.w3.org/1999/xlink" x="0px" y="0px"
	 viewBox="0 0 351.9 351.9" style="enable-background:new 0 0 351.9 351.9;" xml:space="preserve">
<style type="text/css">
	.st0{fill:#E8C36A;}
	.st1{fill:#00537D;}
	.st2{fill:none;}
	.st3{clip-path:url(#SVGID_2_);}
	.st4{fill-rule:evenodd;clip-rule:evenodd;fill:#3A3A3A;}
	.st5{clip-path:url(#SVGID_4_);}
	.st6{clip-path:url(#SVGID_6_);}
	.st7{fill:#0071AA;}
</style>
<circle class="st0" cx="175.5" cy="176.5" r="168.5"/>
<g id="claw-bath-in-spa_2_" transform="translate(0 -68.849)">
	<g id="Path_81_2_">
		<path class="st2" d="M252.4,316c0-6.1-9.8-11.5-25.3-15.2v-20.6c0-8.5-6.9-15.5-15.5-15.5h-17.5c-2.5,0-4.6-2-4.6-4.5
			c0-0.4,0.1-0.8,0.2-1.2c1.4-4.9,5.2-7.7,8.7-11.1c3.1-3.2,5.5-6.9,7.3-10.9c1.1-1.7,2.4-3.1,3.9-4.4c1.6-1.7,2.9-3.6,4.1-5.6
			c4.9-8.8,4.7-19.4-0.4-28.1c0-4.7-0.8-9.4-2.4-13.9c-3.2-8.9-10.5-15.6-19.6-18.1c-11-11-28.8-10.9-39.8,0.1
			c-5.3,5.3-8.2,12.4-8.2,19.9c0,1.9,0.2,3.8,0.6,5.6c-1.5,4.3-2.1,8.8-2,13.4c0.4,7.7,2.5,15.2,6.1,22c1.7,3.2,2.2,6.6,3.7,10
			c1.7,4.1,4.3,7.7,7.6,10.7c3.3,2.9,6.8,5.9,8.1,10.4c0.7,2.4-0.8,4.9-3.2,5.6c-0.4,0.1-0.8,0.2-1.2,0.2h-15.3
			c-8.5,0-15.5,6.9-15.5,15.5v20.6c-15.5,3.7-25.3,9.1-25.3,15.2c0,6.3,10.7,12,27.3,15.6c0.3,0.1,0.7-0.1,0.7-0.5
			c0.1-0.3-0.1-0.6-0.4-0.7c-9.3-3.9-14.9-8.9-14.9-14.5c0-5,4.7-9.7,12.5-13.4V316c0,5.9,21.2,10.8,47.5,10.8s47.5-4.8,47.5-10.8
			v-13.4c7.8,3.7,12.5,8.4,12.5,13.4c0,5.6-5.6,10.6-14.9,14.5c-0.3,0.1-0.5,0.5-0.3,0.8c0.1,0.3,0.4,0.4,0.7,0.4
			C241.7,327.9,252.4,322.3,252.4,316z M171.5,164.2c2.8,0,5.7,0.5,8.3,1.6c-6.1,0.5-12,2.2-17.3,5.2c-5.2,2.9-9.8,6.9-13.4,11.7
			C151.2,171.9,160.6,164.2,171.5,164.2L171.5,164.2z M147.4,201.6c0.1-1.5,0.4-2.9,0.7-4.4c0.3-1.4,0.8-2.9,1.4-4.2
			c0.6-1.5,1.3-2.9,2.1-4.2c6.5-10.7,18-17.4,30.5-17.6c1.7,0,3.4,0.2,5.1,0.5c0.4,0.1,0.9,0.2,1.3,0.3c1.5,0.4,3,0.9,4.5,1.5
			c6.1,2.5,10.8,7.5,13,13.6c0.6,1.6,1.1,3.3,1.4,4.9c0.3,1.4,0.5,2.8,0.6,4.3c0,0.6,0.1,1.1,0.1,1.6h-28.8c-2.4,0-4.8,0.2-7.2,0.7
			c-1.5,0.3-2.9,0.7-4.3,1.3c-3.4,1.3-6.6,3.4-9.1,6c-0.2,0.2-0.4,0.4-0.6,0.6c-0.4,0.4-0.8,0.9-1.2,1.4c-0.6,0.7-1.1,1.4-1.6,2.2
			c-0.8,1.2-1.5,2.5-2.2,3.8c-1,2.2-1.9,4.5-2.5,6.8l-0.3-0.6C147.9,214.2,146.9,207.9,147.4,201.6z M182.2,243.6h-7.1
			c-0.7,0-1.2-0.5-1-0.9c0.5-1.2,1.7-2.1,3.1-2.2c0.2,0,0.4,0,0.6,0.1l0.4,0.2c0.3,0.1,0.6,0.1,0.9,0l0.4-0.2
			c0.2-0.1,0.4-0.1,0.6-0.1c1.4,0.1,2.5,1,3.1,2.2C183.4,243.2,182.9,243.6,182.2,243.6z M183.2,247.3c-1.9,2.5-5.4,3-8,1.2
			c-0.4-0.3-0.8-0.7-1.2-1.2c-0.2-0.5,0.3-0.9,1-0.9h7.1C182.9,246.4,183.4,246.9,183.2,247.3L183.2,247.3z M195.1,203.1h14.4
			c3.9,7.7,3.1,16.9-2,23.8v0C207.5,217.4,202.9,208.5,195.1,203.1z M283.1,316.2c0,8-15.2,15.1-39,19.9c-1.5,0.3-2.4-1.3-1-1.8
			c12.8-4.9,24.6-11.2,24.6-18.1c0-6.8-11.8-13.2-24.6-18.1c-1.4-0.5-0.6-2.1,1-1.8C267.9,301.1,283.1,308.2,283.1,316.2
			L283.1,316.2z M115.2,336.1c-23.9-4.8-39-11.9-39-19.9c0-8,15.2-15.1,39-19.9c1.5-0.3,2.4,1.3,1,1.8
			c-12.8,4.9-24.6,11.2-24.6,18.1c0,6.9,11.8,13.2,24.6,18.1C117.6,334.8,116.8,336.4,115.2,336.1z M246.8,265
			c-0.2-0.2-0.4-0.4-0.6-0.6c-2.8-2.8-4.8-6.4-5.6-10.3c-0.1-0.4-0.2-0.9-0.3-1.4c-1-7.6,2.1-15.3,8.2-20c3-2,5.8-4.3,8.3-6.9
			c4-5.1,5-12.5,5.2-18.8c0-0.4,0-0.7,0-1c0-0.5,0-0.8,0-0.8s0.2,0.2,0.6,0.6c0.2,0.2,0.4,0.4,0.7,0.8c3.6,4.2,5.5,9.6,5.4,15.2
			c-0.1,3.7-1.1,7.3-2.9,10.5c-1.8,3-4.2,5.6-7,7.6c-2.4,1.5-4.6,3.3-6.6,5.2c-3.2,3.8-5.1,8.6-5.2,13.5c-0.1,1.1-0.2,2.2-0.2,3.3
			C246.8,262.3,246.8,265,246.8,265L246.8,265z M100.7,265c-0.2-0.2-0.4-0.4-0.6-0.6c-2.8-2.8-4.8-6.4-5.6-10.3
			c-0.1-0.4-0.2-0.9-0.3-1.4c-1-7.6,2.1-15.3,8.2-20c3-2,5.8-4.3,8.3-6.9c4-5.1,5-12.5,5.2-18.8c0-0.4,0-0.7,0-1c0-0.5,0-0.8,0-0.8
			s0.2,0.2,0.6,0.6c0.2,0.2,0.4,0.4,0.7,0.8c3.6,4.2,5.5,9.6,5.4,15.2c-0.1,3.7-1.1,7.3-2.9,10.5c-1.8,3-4.2,5.6-7,7.6
			c-2.4,1.5-4.6,3.3-6.6,5.2c-3.2,3.8-5.1,8.6-5.2,13.5c-0.1,1.1-0.2,2.2-0.2,3.3C100.8,262.3,100.8,265,100.7,265L100.7,265z"/>
		<path class="st1" d="M88.6,322.7c-1.3-2.1-2-4.3-2-6.5c0-2.3,0.7-4.4,2-6.5c-5.5,2.8-7.5,5.3-7.5,6.5
			C81.2,317.5,83.1,319.9,88.6,322.7 M270.6,322.7c5.5-2.8,7.5-5.3,7.5-6.5c0-1.3-2-3.7-7.5-6.5c1.3,2.1,2,4.3,2,6.5
			C272.6,318.5,272,320.6,270.6,322.7 M179.6,321.8c10.9,0,21.4-0.9,29.6-2.4c8.1-1.6,11.8-3.4,12.9-4.2v-12.5v-7.9l0,0v-14.5
			c0-5.8-4.7-10.5-10.5-10.5h-17.5c-3,0-5.8-1.4-7.6-3.8c-1.8-2.4-2.4-5.4-1.6-8.3c1.5-5.5,5.2-8.9,8.5-11.9c0.6-0.5,1.1-1,1.6-1.5
			c2.7-2.6,4.4-5.8,6.3-9.6c0.4-0.7,0.7-1.3,1.1-1.8v-6v0c0-7.8-3.8-15.2-10.3-19.7l-6.3-4.4h-6.8c-2.2,0-4.2,0.2-6.2,0.6l0,0l0,0
			c-1.2,0.3-2.4,0.6-3.5,1c-1.2,0.5-2.3,1-3.4,1.7c-1.4,0.9-2.8,1.9-4,3.2l0,0l0,0c-0.1,0.1-0.1,0.2-0.2,0.2
			c-0.1,0.1-0.2,0.2-0.3,0.3c-0.3,0.4-0.6,0.7-0.9,1.1c-0.5,0.6-0.9,1.2-1.3,1.8c-0.7,1.1-1.3,2.2-1.8,3.3c-0.9,1.9-1.6,3.9-2.2,6
			l-1.7,6.5c0.5,1.2,0.8,2.4,1.2,3.6c0.4,1.4,0.9,2.7,1.4,3.9c1.6,3.6,3.7,6.6,6.3,9l0.4,0.4c3.5,3.1,7.6,6.7,9.2,12.4
			c0.8,2.9,0.2,5.9-1.6,8.3c-1.8,2.4-4.6,3.8-7.6,3.8h-15.3c-5.8,0-10.5,4.7-10.5,10.5v14.5v7.8v12.5c1.1,0.9,4.8,2.7,12.9,4.2
			C158.2,320.9,168.7,321.8,179.6,321.8 M169.5,245c-0.6-1.4-0.5-2.9,0.1-4.3c1.2-2.8,3.7-4.6,6.8-5.1l0.1,0l0.1,0
			c0.2,0,0.5,0,0.7,0c0.5,0,0.9,0,1.4,0.1c0.4-0.1,0.9-0.2,1.3-0.2c0.3,0,0.6,0,1,0.1c3.1,0.5,5.6,2.3,6.8,5.1l0.1,0.2l0.1,0.2
			c0.5,1.3,0.4,2.8-0.1,4c0.6,1.4,0.6,3-0.1,4.4c-1.4,3.2-5,5.2-9.1,5.2c-4.1,0-7.7-2-9.1-5.2C168.9,248,168.9,246.4,169.5,245
			 M115.2,319.6c-0.4-1.3-0.5-2.5-0.5-3.6c0-1.1,0.1-2.3,0.5-3.5c-2.6,1.7-3.4,3-3.4,3.5C111.8,316.5,112.6,317.9,115.2,319.6
			 M244,319.6c2.6-1.7,3.4-3.1,3.4-3.6c0-0.5-0.8-1.9-3.4-3.6c0.3,1.3,0.5,2.5,0.5,3.5C244.5,317.1,244.4,318.3,244,319.6
			 M99.5,245.7c0.8-1.4,1.8-2.8,3-4.1c1.9-2,4-3.5,6.1-5c0.4-0.3,0.8-0.6,1.2-0.9c2.6-1.9,4.3-3.7,5.6-6l0,0l0,0
			c1-1.7,1.6-3.6,2-5.5c-0.8,1.6-1.7,3.2-2.8,4.6c-2.1,2.6-4.6,4.4-6.7,6c-0.8,0.6-1.7,1.2-2.4,1.8
			C102.5,239,100.4,242.2,99.5,245.7 M245.6,245.7c0.8-1.4,1.8-2.8,3-4.1c1.9-2,4-3.5,6.1-5c0.4-0.3,0.8-0.6,1.2-0.9
			c2.6-1.9,4.3-3.7,5.6-6l0,0l0,0c1-1.7,1.6-3.6,2-5.5c-0.8,1.6-1.7,3.2-2.8,4.6c-2.1,2.6-4.6,4.4-6.7,6c-0.8,0.6-1.7,1.2-2.4,1.8
			C248.6,239,246.5,242.2,245.6,245.7 M115.6,336.2c-0.1,0-0.3,0-0.4,0c-23.9-4.8-39-11.9-39-19.9c0-8,15.2-15.1,39-19.9
			c0.1,0,0.3,0,0.4,0c1.3,0,1.9,1.4,0.6,1.9c-12.8,4.9-24.6,11.2-24.6,18.1s11.8,13.2,24.6,18.1
			C117.5,334.8,116.9,336.2,115.6,336.2z M243.7,336.2c-1.3,0-1.9-1.4-0.6-1.9c12.8-4.9,24.6-11.2,24.6-18.1s-11.8-13.2-24.6-18.1
			c-1.3-0.5-0.7-1.9,0.6-1.9c0.1,0,0.2,0,0.4,0c23.9,4.8,39,11.9,39,19.9c0,8-15.2,15.1-39,19.9
			C243.9,336.1,243.8,336.2,243.7,336.2z M134.3,331.6c0,0-0.1,0-0.1,0c-16.7-3.7-27.3-9.3-27.3-15.6c0-6.1,9.8-11.5,25.3-15.2
			v-20.6c0-8.5,6.9-15.5,15.5-15.5h15.3c3,0,5.2-2.9,4.4-5.7c-1.2-4.5-4.7-7.4-8.1-10.4c-3.3-2.9-5.8-6.7-7.6-10.7
			c-1.4-3.3-2-6.8-3.7-10c-3.5-6.8-5.9-14.3-6.1-22c-0.2-4.7,0.5-9.1,2-13.4c-0.4-1.8-0.6-3.7-0.6-5.6c0-15.5,12.6-28.2,28.2-28.2
			c7.7,0,14.8,3.1,19.9,8.2c11.8,3.4,17.2,11.6,19.6,18.1c2.2,5.8,2.5,11.2,2.4,13.9c2.5,4.2,3.9,9.1,3.9,14.4
			c0,4.8-1.2,9.5-3.6,13.7c-1.1,2-2.5,3.9-4.1,5.6c-1.4,1.5-2.9,2.4-3.9,4.4c-2.1,4-4,7.7-7.3,10.9c-3.5,3.3-7.4,6.2-8.7,11.1
			c-0.8,2.9,1.4,5.7,4.4,5.7h17.5c8.5,0,15.5,6.9,15.5,15.5v20.6c15.5,3.7,25.3,9.1,25.3,15.2c0,6.3-10.7,12-27.4,15.6
			c0,0-0.1,0-0.1,0c-0.6,0-0.9-0.9-0.2-1.2c9.3-3.9,14.9-8.9,14.9-14.5c0-5-4.7-9.7-12.5-13.4V316c0,5.9-21.2,10.8-47.5,10.8
			s-47.5-4.8-47.5-10.8v-13.4c-7.8,3.7-12.5,8.3-12.5,13.4c0,5.6,5.6,10.6,14.9,14.5C135.2,330.7,135,331.6,134.3,331.6z
			 M175.1,246.4c-0.7,0-1.2,0.5-1,0.9c0.6,1.3,2.4,2.3,4.6,2.3c2.2,0,4-1,4.6-2.3c0.2-0.5-0.3-0.9-1.1-0.9H175.1z M177.3,240.4
			c0,0-0.1,0-0.1,0c-1.7,0.3-2.6,1.1-3.1,2.2c-0.2,0.5,0.3,0.9,1,0.9h7.1c0.7,0,1.2-0.5,1.1-0.9c-0.5-1.1-1.4-2-3.1-2.2
			c-0.1,0-0.1,0-0.2,0c-0.1,0-0.3,0-0.4,0.1l-0.5,0.2c-0.1,0.1-0.3,0.1-0.5,0.1c-0.2,0-0.3,0-0.5-0.1l-0.5-0.2
			C177.6,240.5,177.5,240.4,177.3,240.4z M195.1,203.1c7.5,5.3,12.4,14,12.4,23.8v0c2.8-3.8,4.5-8.5,4.5-13.5
			c0-3.7-0.9-7.2-2.4-10.3H195.1z M182.1,171.1c-5.6,0-11.6,1.6-17,4.6c-5.8,3.2-10.5,7.7-13.5,13c-0.8,1.3-1.4,2.7-2.1,4.2
			c-0.5,1.3-1,2.7-1.4,4.2c-0.3,1.4-0.6,2.8-0.7,4.4c-0.5,5.2,0.2,11.3,2.9,18.5c0.1,0.2,0.2,0.4,0.3,0.6c0.6-2.1,1.4-4.5,2.5-6.8
			c0.6-1.3,1.3-2.6,2.2-3.8c0.5-0.7,1-1.5,1.6-2.2c0.4-0.5,0.8-0.9,1.2-1.4c0.2-0.2,0.4-0.4,0.6-0.6c1.4-1.4,3.1-2.8,5-4
			c1.3-0.8,2.6-1.5,4.1-2c1.3-0.5,2.7-0.9,4.3-1.3c2.2-0.5,4.6-0.7,7.2-0.7h12.3h3h2.9h8.3h2.3c0-0.5,0-1-0.1-1.6
			c-0.1-1.2-0.3-2.7-0.6-4.3s-0.8-3.2-1.4-4.9c-1.9-4.9-4.8-8.6-8.7-11.3c-1.3-0.9-2.7-1.7-4.3-2.3c-1.4-0.6-2.9-1.1-4.5-1.5
			c-0.4-0.1-0.9-0.2-1.3-0.3C185.6,171.3,183.8,171.1,182.1,171.1z M171.5,164.2c-11.1,0-20.3,7.9-22.4,18.4
			c3.5-4.7,8-8.7,13.4-11.7c5.4-3,11.5-4.8,17.3-5.2C177.2,164.8,174.4,164.2,171.5,164.2z M246.8,265c0,0-0.2-0.2-0.6-0.6
			c-2.9-2.7-4.8-6.5-5.6-10.3c-0.1-0.5-0.2-0.9-0.3-1.4c-1.1-7.6,2.2-15.2,8.2-20c2.9-2.3,6-3.9,8.3-6.9c4-5.1,5-12.5,5.2-18.8
			c0-0.4,0-0.7,0-1c0-0.5,0-0.8,0-0.8s0.2,0.2,0.6,0.6c0.2,0.2,0.4,0.5,0.7,0.8c3.6,4.1,5.5,9.8,5.4,15.2c-0.1,3.7-1.1,7.3-2.9,10.5
			c-1.8,3.1-4.1,5.5-7,7.6c-2.3,1.7-4.7,3.2-6.6,5.2c-3.5,3.7-4.8,8.6-5.2,13.6c-0.1,1.1-0.2,2.2-0.2,3.3
			C246.8,262.3,246.8,265,246.8,265z M100.7,265c0,0-0.2-0.2-0.6-0.6c-2.9-2.7-4.8-6.5-5.6-10.3c-0.1-0.5-0.2-0.9-0.3-1.4
			c-1.1-7.6,2.2-15.2,8.2-20c2.9-2.3,6-3.9,8.3-6.9c4-5.1,5-12.5,5.2-18.8c0-0.4,0-0.7,0-1c0-0.5,0-0.8,0-0.8s0.2,0.2,0.6,0.6
			c0.2,0.2,0.4,0.5,0.7,0.8c3.6,4.1,5.5,9.8,5.4,15.2c-0.1,3.7-1.1,7.3-2.9,10.5c-1.8,3.1-4.1,5.5-7,7.6c-2.3,1.7-4.7,3.2-6.6,5.2
			c-3.5,3.7-4.8,8.6-5.2,13.6c-0.1,1.1-0.2,2.2-0.2,3.3C100.7,262.3,100.7,265,100.7,265z"/>
	</g>
	<g id="Path_82_2_" transform="translate(-76.572 -199.294)">
		<path class="st2" d="M177.3,461.2c0-1.1,0.1-2.2,0.2-3.3c0.1-5,2-9.8,5.2-13.6c2-1.9,4.2-3.7,6.6-5.2c2.9-2,5.3-4.5,7-7.6
			c4.7-8.2,3.7-18.5-2.5-25.7c-0.3-0.3-0.5-0.5-0.7-0.8c-0.4-0.4-0.6-0.6-0.6-0.6s0,0.3,0,0.8c0,0.3,0,0.6,0,1
			c-0.2,6.3-1.2,13.7-5.2,18.8c-2.5,2.6-5.3,4.9-8.3,6.9c-6.1,4.7-9.2,12.4-8.2,20c0.1,0.5,0.1,0.9,0.3,1.4
			c0.8,3.9,2.8,7.5,5.6,10.3c0.2,0.2,0.4,0.4,0.6,0.6C177.3,464.3,177.3,461.6,177.3,461.2z"/>
		<path class="st1" d="M176.1,445.1c0.8-1.4,1.8-2.8,3.1-4.2c1.9-2,4-3.5,6.1-5c0.4-0.3,0.8-0.6,1.2-0.9l0,0l0,0
			c2.6-1.9,4.3-3.7,5.6-6c1-1.7,1.6-3.6,2-5.5c-0.8,1.6-1.7,3.2-2.8,4.6c-2,2.6-4.5,4.4-6.7,5.9c-0.9,0.6-1.7,1.2-2.5,1.8
			C179,438.3,177,441.6,176.1,445.1 M177.4,464.3C177.4,464.3,177.4,464.3,177.4,464.3C177.4,464.3,177.4,464.3,177.4,464.3
			C177.4,464.3,177.4,464.3,177.4,464.3z M177.4,464.3c0,0-0.3-0.2-0.6-0.6c-2.9-2.7-4.8-6.5-5.6-10.3c-0.1-0.5-0.2-0.9-0.3-1.4
			c-1.2-7.6,2.1-15.2,8.2-20c2.9-2.3,6-4,8.3-6.9c4-5.1,5-12.5,5.2-18.8c0-0.4,0-0.7,0-1c0-0.6,0-0.8,0-0.8s0.2,0.2,0.6,0.6
			c0.2,0.2,0.4,0.5,0.7,0.8c3.6,4.1,5.5,9.8,5.4,15.2c-0.1,3.6-1.1,7.3-2.9,10.5c-1.8,3.1-4.1,5.5-7,7.6c-2.3,1.7-4.7,3.2-6.6,5.2
			c-3.5,3.7-4.8,8.6-5.2,13.6c-0.1,1.1-0.2,2.2-0.2,3.3C177.3,461.6,177.3,464.2,177.4,464.3z"/>
	</g>
</g>
</svg>
