<svg height="512" viewBox="0 0 64 64" width="512" xmlns="http://www.w3.org/2000/svg">
    <g id="hospital-service-infirmary-sanatorium-sanitarium">
        <path d="m21 30h22v2h-22z"/>
        <path d="m24 10a8.258 8.258 0 0 1 .07-1h-10.07v2h10.07a8.258 8.258 0 0 1 -.07-1z"/>
        <path d="m42 54v-16h-9v16zm-7-9h2v2h-2z"/>
        <path d="m31 54v-16h-9v16zm-4-9h2v2h-2z"/>
        <path d="m16 54h4v-17a1 1 0 0 1 1-1h22a1 1 0 0 1 1 1v17h4v-41h-8.59a7.991 7.991 0 0 1 -14.82 0h-8.59zm3-33a1 1 0 0 1 1-1h24a1 1 0 0 1 1 1v4a1 1 0 0 1 -1 1h-24a1 1 0 0 1 -1-1zm0 8a1 1 0 0 1 1-1h24a1 1 0 0 1 1 1v4a1 1 0 0 1 -1 1h-24a1 1 0 0 1 -1-1z"/>
        <path d="m56.9 56.17 1.1.94v-30.11h-8v27h1.04a9 9 0 0 1 5.86 2.17zm-4.9-25.17h4v2h-4zm0 6h4v2h-4zm0 6h4v2h-4zm0 5h4v2h-4z"/>
        <path d="m50 11v-2h-10.07a8.258 8.258 0 0 1 .07 1 8.258 8.258 0 0 1 -.07 1z"/>
        <path d="m21 22h22v2h-22z"/>
        <path d="m32 16a6 6 0 1 0 -6-6 6 6 0 0 0 6 6zm-4-7h3v-3h2v3h3v2h-3v3h-2v-3h-3z"/>
        <path d="m50 23h10v2h-10z"/>
        <path d="m51.04 56h-38.08a7.007 7.007 0 0 0 -4.56 1.69l-2.7 2.31h52.6l-2.7-2.31a7.007 7.007 0 0 0 -4.56-1.69z"/>
        <path d="m7.1 56.17a9 9 0 0 1 5.86-2.17h1.04v-27h-8v30.11zm.9-25.17h4v2h-4zm0 6h4v2h-4zm0 6h4v2h-4zm0 5h4v2h-4z"/>
        <path d="m4 23h10v2h-10z"/>
    </g>
</svg>