<?xml version="1.0" encoding="utf-8"?>
<!-- Generator: Adobe Illustrator 23.0.0, SVG Export Plug-In . SVG Version: 6.00 Build 0)  -->
<svg version="1.1" id="Layer_1" xmlns="http://www.w3.org/2000/svg" xmlns:xlink="http://www.w3.org/1999/xlink" x="0px" y="0px"
	 viewBox="0 0 351.9 351.9" style="enable-background:new 0 0 351.9 351.9;" xml:space="preserve">
<style type="text/css">
	.st0{fill:#E8C36A;}
	.st1{fill:#00537D;}
	.st2{fill:none;}
	.st3{clip-path:url(#SVGID_2_);}
	.st4{fill-rule:evenodd;clip-rule:evenodd;fill:#3A3A3A;}
	.st5{clip-path:url(#SVGID_4_);}
	.st6{clip-path:url(#SVGID_6_);}
	.st7{fill:#0071AA;}
</style>
<g>
	<defs>
		<rect id="SVGID_5_" x="31.4" y="31" width="294.9" height="294.9"/>
	</defs>
	<clipPath id="SVGID_2_">
		<use xlink:href="#SVGID_5_"  style="overflow:visible;"/>
	</clipPath>
	<g id="Symbol_13_21" class="st3">
		<path id="Path_3" class="st4" d="M178.8,57.2c19.7-0.7,39.4-0.2,59,1.6c9.5-0.1,19,1.5,27.9,4.9c12.3,5.7,22.1,15.6,27.9,27.9
			c3.3,8.9,5,18.3,4.9,27.8c0,14.7,1.6,19.7,1.6,59c0.7,19.7,0.2,39.4-1.6,59c0.1,9.5-1.5,19-4.9,27.9
			c-5.7,12.3-15.6,22.1-27.9,27.9c-8.9,3.4-18.3,5-27.9,4.9c-14.7,0-19.7,1.6-59,1.6c-19.7,0.7-39.3,0.2-58.9-1.7
			c-9.5,0.1-19-1.5-27.9-4.9c-12.3-5.7-22.1-15.6-27.9-27.9c-3.4-8.9-5-18.3-4.9-27.9c0-14.7-1.6-19.7-1.6-59
			c-0.7-19.7-0.2-39.4,1.6-59c-0.1-9.5,1.5-19,4.9-27.9C67,85.5,70.9,80,75.6,75.2c3.8-5.7,9.7-9.8,16.4-11.5
			c8.9-3.4,18.3-5,27.9-4.9C139.4,57,159.1,56.5,178.8,57.2 M178.8,31c-20.2-0.7-40.5-0.2-60.6,1.6c-12.3,0-24.5,2.2-36,6.5
			c-10,3.2-19,8.9-26.2,16.4c-7.5,7.3-13.1,16.3-16.4,26.2c-5.1,11.3-7.4,23.6-6.5,36c-1.8,20.2-2.4,40.4-1.6,60.6
			c-0.7,20.2-0.2,40.5,1.6,60.6c0,12.3,2.2,24.5,6.5,36c3.2,10,8.9,19,16.4,26.2c7.3,7.5,16.3,13.1,26.2,16.4
			c11.5,4.4,23.7,6.6,36,6.5c20.2,1.8,40.4,2.4,60.6,1.6c20.2,0.7,40.5,0.2,60.6-1.6c12.3,0,24.5-2.2,36-6.5
			c20-6.9,35.7-22.6,42.6-42.6c4.4-11.5,6.6-23.7,6.5-36c0-16.4,1.6-21.3,1.6-60.6c0.7-20.2,0.1-40.5-1.7-60.7
			c0-12.3-2.2-24.5-6.5-36c-3.2-10-8.9-19-16.4-26.2c-7.3-7.5-16.3-13.1-26.2-16.4c-11.5-4.3-23.7-6.5-36-6.5
			C219.3,30.8,199,30.3,178.8,31 M178.8,103.1c-41-0.6-74.7,32.1-75.3,73c0,0.8,0,1.5,0,2.3c0,41.6,33.7,75.3,75.3,75.3
			s75.3-33.7,75.3-75.3S220.4,103.1,178.8,103.1 M178.8,227.6c-26.7,0.5-48.7-20.7-49.1-47.4c0-0.6,0-1.2,0-1.8
			c-0.5-26.7,20.7-48.7,47.4-49.1c0.6,0,1.2,0,1.8,0c26.7-0.5,48.7,20.7,49.1,47.4c0,0.6,0,1.2,0,1.8c0.5,26.7-20.7,48.7-47.4,49.1
			C180,227.6,179.4,227.6,178.8,227.6 M257.4,81.8c-10,0-18,8.1-18,18c0,10,8.1,18,18,18c10,0,18-8.1,18-18
			C275.4,89.9,267.4,81.9,257.4,81.8"/>
	</g>
</g>
</svg>
