<?xml version="1.0" encoding="utf-8"?>
<!-- Generator: Adobe Illustrator 23.0.0, SVG Export Plug-In . SVG Version: 6.00 Build 0)  -->
<svg version="1.1" id="Layer_1" xmlns="http://www.w3.org/2000/svg" xmlns:xlink="http://www.w3.org/1999/xlink" x="0px" y="0px"
	 viewBox="0 0 351.9 351.9" style="enable-background:new 0 0 351.9 351.9;" xml:space="preserve">
<style type="text/css">
	.st0{fill:#E8C36A;}
	.st1{fill:#00537D;}
	.st2{fill:none;}
	.st3{clip-path:url(#SVGID_2_);}
	.st4{fill-rule:evenodd;clip-rule:evenodd;fill:#3A3A3A;}
	.st5{clip-path:url(#SVGID_4_);}
	.st6{clip-path:url(#SVGID_6_);}
	.st7{fill:#0071AA;}
</style>
<g>
	<defs>
		<rect id="SVGID_3_" x="34.4" y="24" width="294.9" height="294.9"/>
	</defs>
	<clipPath id="SVGID_2_">
		<use xlink:href="#SVGID_3_"  style="overflow:visible;"/>
	</clipPath>
	<g id="Symbol_12_21" class="st3">
		<rect id="Rectangle_393" x="34.4" y="24" class="st2" width="294.9" height="294.9"/>
		<path id="Path_2" class="st4" d="M127.7,300c94.2,0.8,171.2-74.8,172-168.9c0-1,0-2,0-3.1v-8.2c11.4-8.7,21.4-19.2,29.5-31.1
			c-11,4.8-22.6,8.1-34.4,9.8c12.2-7.6,21.4-19.2,26.2-32.8c-11.8,6.6-24.5,11.5-37.7,14.7c-11.2-12.6-27.4-19.8-44.3-19.7
			c-33.3,0.5-60.1,27.3-60.6,60.6c-0.4,4.4,0.2,8.9,1.6,13.1c-48.8-2.4-94.2-25.6-124.5-63.9c-5.4,9.5-8.2,20.2-8.2,31.1
			c0.4,20.1,10.1,38.8,26.2,50.8c-9.8-0.2-19.5-3-27.9-8.2l0,0c0,29,20.7,53.8,49.1,59c-5.3,1.4-10.9,2-16.4,1.6
			c-3.9,0.3-7.8-0.3-11.5-1.6c8.2,24.9,31.2,41.9,57.4,42.6c-21.5,16.8-48,26.1-75.3,26.2c-5,0.3-10-0.3-14.8-1.7
			C61.5,290.2,94.2,300.6,127.7,300"/>
	</g>
</g>
</svg>
