<?xml version="1.0" encoding="utf-8"?>
<!-- Generator: Adobe Illustrator 23.0.0, SVG Export Plug-In . SVG Version: 6.00 Build 0)  -->
<svg version="1.1" id="Layer_1" xmlns="http://www.w3.org/2000/svg" xmlns:xlink="http://www.w3.org/1999/xlink" x="0px" y="0px"
	 viewBox="0 0 351.9 351.9" style="enable-background:new 0 0 351.9 351.9;" xml:space="preserve">
<style type="text/css">
	.st0{fill:#E8C36A;}
	.st1{fill:#00537D;}
	.st2{fill:none;}
	.st3{clip-path:url(#SVGID_2_);}
	.st4{fill-rule:evenodd;clip-rule:evenodd;fill:#3A3A3A;}
	.st5{clip-path:url(#SVGID_4_);}
	.st6{clip-path:url(#SVGID_6_);}
	.st7{fill:#0071AA;}
</style>
<circle class="st0" cx="176.5" cy="176.5" r="168.5"/>
<g>
	<g id="Group_240" transform="translate(4.628)">
		<g id="Group_239">
			<path id="Path_43" class="st1" d="M153.9,93c-24.5,0-44.4,19.9-44.4,44.4V170c0,11.4,9.3,20.7,20.7,20.7h2.9v-5.9h-3
				c-8.2,0-14.8-6.6-14.8-14.8v-32.6c-0.2-21.2,16.9-38.6,38.1-38.8c21.2-0.2,38.6,16.9,38.8,38.1c0,0.2,0,0.5,0,0.7V170
				c0,8.2-6.6,14.8-14.8,14.8h-3v5.9h3c11.4,0,20.7-9.3,20.7-20.7v-32.6C198.3,112.9,178.4,93,153.9,93z"/>
		</g>
	</g>
	<g id="Group_242" transform="translate(4.628 41.561)">
		<g id="Group_241">
			<path id="Path_44" class="st1" d="M119.1,190.9l2.2-3.4l-5-3.2l-2.2,3.4c-6.5,10.3-6.1,23.6,1.2,33.4v7.9h5.9v-8.9
				c0-0.7-0.2-1.3-0.6-1.8C114.3,210.4,113.7,199.4,119.1,190.9z"/>
		</g>
	</g>
	<g id="Group_244" transform="translate(34.244)">
		<g id="Group_243">
			<path id="Path_45" class="st1" d="M227.9,93h-38.5c-8.2,0-14.8,6.6-14.8,14.8v29.6c0,8.2,6.6,14.8,14.8,14.8h5.9V164
				c0,1.2,0.7,2.3,1.8,2.7c0.4,0.1,0.7,0.2,1.1,0.2c0.8,0,1.5-0.3,2.1-0.9l13.9-13.9h13.6c8.2,0,14.8-6.6,14.8-14.8v-29.6
				C242.7,99.6,236.1,93,227.9,93z M236.8,137.4c0,4.9-4,8.9-8.9,8.9c0,0,0,0,0,0h-14.8c-0.8,0-1.5,0.3-2.1,0.9l-9.7,9.7v-7.7
				c0-1.6-1.3-3-3-3h-8.9c-4.9,0-8.9-4-8.9-8.9c0,0,0,0,0,0v-29.6c0-4.9,4-8.9,8.9-8.9l0,0h38.5c4.9,0,8.9,4,8.9,8.9c0,0,0,0,0,0
				L236.8,137.4z"/>
		</g>
	</g>
	<g id="Group_246" transform="translate(38.583 4.778)">
		<g id="Group_245" transform="translate(0 0)">
			<rect id="Rectangle_574" x="184" y="103.4" class="st1" width="19.2" height="6.4"/>
		</g>
	</g>
	<g id="Group_248" transform="translate(46.856 4.778)">
		<g id="Group_247" transform="translate(0 0)">
			<rect id="Rectangle_575" x="201.3" y="103.4" class="st1" width="12.8" height="6.4"/>
		</g>
	</g>
	<g id="Group_250" transform="translate(38.583 8.455)">
		<g id="Group_249" transform="translate(0 0)">
			<rect id="Rectangle_576" x="184" y="112.6" class="st1" width="38.4" height="6.4"/>
		</g>
	</g>
	<g id="Group_252" transform="translate(38.583 12.132)">
		<g id="Group_251" transform="translate(0 0)">
			<rect id="Rectangle_577" x="184" y="118.5" class="st1" width="19.2" height="6.4"/>
		</g>
	</g>
	<g id="Group_254" transform="translate(28.717 41.561)">
		<g id="Group_253">
			<path id="Path_46" class="st1" d="M169.6,187.8l-2.2-3.4l-5,3.2l2.2,3.4c5.4,8.5,4.8,19.5-1.5,27.4c-0.4,0.5-0.6,1.2-0.6,1.8v8.9
				h5.9v-7.9C175.7,211.3,176.2,198.1,169.6,187.8z"/>
		</g>
	</g>
	<g id="Group_256" transform="translate(0 8.08)">
		<g id="Group_255">
			<path id="Path_47" class="st1" d="M274,185.5h-26.6c-11.1,0-20.2,8.8-20.7,19.9l-8.9,16.1v-12.3c0-11.4-9.3-20.7-20.7-20.7h-10.8
				l-0.1-0.1l-0.1,0.1h-6.8c-3.3,0-5.9-2.7-5.9-5.9v-7c9.1-5.3,14.8-15,14.8-25.6v-23.7c0-4.9-1.2-9.7-3.6-14
				c-0.7-1.4-2.4-1.9-3.8-1.3l-50.1,23.5c-1,0.5-1.7,1.5-1.7,2.7V150c0,10.6,5.7,20.3,14.8,25.6v7c0,3.3-2.7,5.9-5.9,5.9h-17.8
				c-11.4,0-20.7,9.3-20.7,20.7v53.3h5.9v-53.3c0-8.2,6.6-14.8,14.8-14.8h9.4l26.7,37.2c0.5,0.8,1.4,1.2,2.4,1.2h0
				c0.9,0,1.8-0.4,2.4-1.2l28.1-37.3h8c8.2,0,14.8,6.6,14.8,14.8v23.7c0,1.6,1.3,3,3,3c1.1,0,2.1-0.6,2.6-1.5l14-25.1h17l-28.9,53.3
				h6.7l28.9-53.3h1.2c11.4,0,20.7-9.3,20.7-20.7C276.9,186.9,275.6,185.5,274,185.5C274,185.5,274,185.5,274,185.5z M134.9,150
				v-10.9l45.7-21.5c1.1,2.8,1.7,5.7,1.7,8.7V150c0,13.1-10.6,23.7-23.7,23.7S134.9,163.1,134.9,150L134.9,150z M158.6,224.9
				l-9.1-12.8h18.8L158.6,224.9z M172.7,206.3h-27.5l-8.5-11.8h1.1c6.5,0,11.8-5.3,11.8-11.8v-4.3c5.8,1.8,12,1.8,17.8,0v4.3
				c0,6.5,5.3,11.8,11.8,11.8h2.4L172.7,206.3z M256.2,203.3h-23.4c1.4-6.9,7.5-11.8,14.5-11.8h23.4
				C269.3,198.4,263.3,203.3,256.2,203.3L256.2,203.3z"/>
		</g>
	</g>
</g>
</svg>
