<?xml version="1.0" encoding="utf-8"?>
<!-- Generator: Adobe Illustrator 23.0.0, SVG Export Plug-In . SVG Version: 6.00 Build 0)  -->
<svg version="1.1" id="Layer_1" xmlns="http://www.w3.org/2000/svg" xmlns:xlink="http://www.w3.org/1999/xlink" x="0px" y="0px"
	 viewBox="0 0 351.9 351.9" style="enable-background:new 0 0 351.9 351.9;" xml:space="preserve">
<style type="text/css">
	.st0{fill:#E8C36A;}
	.st1{fill:#00537D;}
	.st2{fill:none;}
	.st3{clip-path:url(#SVGID_2_);}
	.st4{fill-rule:evenodd;clip-rule:evenodd;fill:#3A3A3A;}
	.st5{clip-path:url(#SVGID_4_);}
	.st6{clip-path:url(#SVGID_6_);}
	.st7{fill:#0071AA;}
</style>
<circle class="st0" cx="175" cy="176.5" r="168.5"/>
<g id="dog" transform="translate(0.9 0.9)">
	<path class="st1" d="M152,147.8L152,147.8c-11.1-0.3-20-9.4-20-20.6V90.1h18.2c12.7,0,23,10.3,23,23v14.1
		c0,11.3-9.2,20.6-20.6,20.6L152,147.8z M137,95.1v32c0,8.6,7,15.5,15.5,15.5h0.3c8.4-0.1,15.3-7.1,15.3-15.5v-14.1
		c0-9.9-8.1-18-18-18H137z"/>
	<path class="st1" d="M251.5,265.1C251.5,265.1,251.5,265.1,251.5,265.1h-93.6v-7.5c0-10.4,8.5-18.9,18.9-18.9c0,0,0,0,0,0h5.3
		c1.4,0,2.5-1.1,2.5-2.5v-5.3c0-13.3,10.9-24.2,24.2-24.2c1.3,0,2.3-1.1,2.3-2.4c0-1.4-1-2.5-2.4-2.5c-16,0-29,13.1-29.1,29.1v2.9
		h-2.9c-6.4,0-12.4,2.5-16.8,7c-4.5,4.5-7,10.5-6.9,16.8v7.5h-18.9c-2,0-3.9-0.8-5.3-2.2c-1.4-1.4-2.2-3.3-2.2-5.3V253
		c0-5.1,1.2-10.3,3.5-14.9l1.8-3.7v-27.3c-6.9-8-10.7-18.1-10.7-28.7v-11.6c0-1.7-1.4-3.2-3.2-3.2h-8C95.7,163.7,84,152,84,137.6v-8
		c0-4.1,3.4-7.5,7.5-7.5h10.7c4.7,0,8.5-3.8,8.5-8.5c0-8.8,4.9-16.8,12.7-20.9l3.7-1.9v36.4c0,8.9,4.5,17,12.1,21.7
		c5.8,3.6,12.6,4.7,19.3,3.2c6.6-1.6,12.3-5.6,15.8-11.4l2.4-3.8l2,4c5.4,10.7,14.3,19.2,25.3,23.9l13.7,6
		c25.1,10.9,41.4,35.7,41.4,63.1v23.8C259,261.7,255.6,265.1,251.5,265.1z M162.9,260.1h88.5l0,0c1.4,0,2.5-1.1,2.5-2.5v-23.8
		c0-25.4-15-48.4-38.3-58.5l0,0l-13.7-6c-10.8-4.7-19.8-12.7-25.8-22.7c-4.2,5.1-10,8.7-16.6,10.3c-7.9,1.9-16.1,0.5-23.1-3.8
		c-9-5.6-14.4-15.3-14.4-26V99.7c-4,3.5-6.3,8.5-6.3,13.9c0,7.5-6.1,13.5-13.5,13.5H91.5c-1.4,0-2.5,1.1-2.5,2.5v8
		c0,11.6,9.5,21.1,21.1,21.1h8c4.5,0,8.2,3.7,8.2,8.2v11.6c0,9.7,3.5,18.9,10,26l0.7,0.7v30.4l-2.4,4.7c-1.9,3.9-3,8.3-3,12.6v4.6
		c0,0.7,0.3,1.3,0.7,1.7c0.5,0.5,1.1,0.7,1.7,0.7H148v-2.5c0-7.7,3-14.9,8.4-20.4c5-5,11.4-7.9,18.3-8.4c1.1-17.8,16-32,34.1-32.1
		c4.2,0.1,7.5,3.5,7.4,7.7c-0.1,4-3.3,7.2-7.3,7.3c-10.6,0-19.2,8.6-19.2,19.2v5.3c0,4.1-3.4,7.5-7.5,7.5h-5.3c0,0,0,0,0,0
		c-7.6,0-13.8,6.2-13.8,13.8V260.1z"/>
</g>
</svg>
