<?xml version="1.0" encoding="utf-8"?>
<!-- Generator: Adobe Illustrator 23.0.0, SVG Export Plug-In . SVG Version: 6.00 Build 0)  -->
<svg version="1.1" id="Layer_1" xmlns="http://www.w3.org/2000/svg" xmlns:xlink="http://www.w3.org/1999/xlink" x="0px" y="0px"
	 viewBox="0 0 351.9 351.9" style="enable-background:new 0 0 351.9 351.9;" xml:space="preserve">
<style type="text/css">
	.st0{fill:#E8C36A;}
	.st1{fill:#00537D;}
	.st2{fill:none;}
	.st3{clip-path:url(#SVGID_2_);}
	.st4{fill-rule:evenodd;clip-rule:evenodd;fill:#3A3A3A;}
	.st5{clip-path:url(#SVGID_4_);}
	.st6{clip-path:url(#SVGID_6_);}
	.st7{fill:#0071AA;}
</style>
<circle class="st0" cx="176.5" cy="176.5" r="168.5"/>
<g id="icon" transform="translate(0.9 0.295)">
	<g id="Group_270" transform="translate(0 0.605)">
		<path class="st1" d="M267.7,157.8h-62l-17.2-60.9l2.2-0.7c5.4-1.7,11-2.5,16.8-2.5c33.2,0,60.2,27.7,60.2,61.7V157.8z
			 M209.2,153.2H263c-1.2-30.4-25.6-54.8-55.6-54.8c-4.5,0-8.9,0.5-13.2,1.7L209.2,153.2z"/>
		<path class="st1" d="M196.3,222.8c-39.6,0-71.8-26.5-71.8-59.2v-2c-0.6-3.3-2-6.4-4.2-9c-4.2-4.7-10.1-8-16.4-9.3
			c-1.5,1-3.3,1.5-5.1,1.5h-7.5c-5.2,0-9.5-4.3-9.5-9.5c0-5.2,4.3-9.5,9.5-9.5h7.5c0,0,0,0,0,0c2.5,0,4.8,1,6.6,2.7
			c11.7,2.5,20.7,7.5,26.6,14.9c4.1,5.2,6.6,11.2,7.4,17.7c16.5,0,125.3,0,126.5,0h2.3v2.3C268.1,196.3,235.9,222.8,196.3,222.8z
			 M129.2,166c1.5,29,31,52.2,67.1,52.2c36.1,0,65.6-23.2,67.1-52.2l-124.8,0c-1.7,0-3.7,0-3.8-2.2c-0.4-6.3-2.6-12.3-6.6-17.2
			c-5.3-6.7-13.6-11.2-24.6-13.4l-0.8-0.2l-0.5-0.6c-0.9-1.1-2.2-1.7-3.6-1.7c0,0,0,0,0,0h-7.5c-2.7,0-4.9,2.2-4.9,4.9
			c0,2.7,2.2,4.9,4.9,4.9h7.5c1.1,0,2.2-0.4,3.1-1.1l0.8-0.7l1.1,0.2c7.7,1.3,14.9,5.2,20.1,11c3.2,4,5.1,8.8,5.6,13.8l0.2,2.5
			H129.2z"/>
		<path class="st1" d="M168.9,264.9c-12.2,0-22.1-9.9-22.1-22.1s9.9-22.1,22.1-22.1h0c12.2,0,22.1,9.9,22.1,22.1
			C191,255,181.1,264.9,168.9,264.9z M168.9,225.4c-9.6,0-17.5,7.8-17.5,17.5c0,9.6,7.8,17.5,17.5,17.5c9.6,0,17.5-7.8,17.5-17.5
			C186.4,233.2,178.5,225.4,168.9,225.4L168.9,225.4z M168.9,254.8L168.9,254.8c-6.6,0-12-5.4-12-12c0-3.2,1.3-6.2,3.5-8.5
			c2.3-2.3,5.3-3.5,8.5-3.5c0,0,0,0,0,0c3.2,0,6.2,1.3,8.5,3.5c2.3,2.3,3.5,5.3,3.5,8.5C180.9,249.4,175.5,254.8,168.9,254.8z
			 M168.9,235.5c-2,0-3.8,0.8-5.2,2.2c-1.4,1.4-2.2,3.2-2.2,5.2c0,4.1,3.3,7.4,7.4,7.4c4.1,0,7.4-3.3,7.4-7.4
			C176.3,238.8,173,235.5,168.9,235.5C168.9,235.5,168.9,235.5,168.9,235.5z"/>
		<path class="st1" d="M222.3,264.9c-12.2,0-22.1-9.9-22.1-22.1s9.9-22.1,22.1-22.1h0c12.2,0,22.1,9.9,22.1,22.1
			C244.4,255,234.5,264.9,222.3,264.9z M222.3,225.4c-9.6,0-17.5,7.8-17.5,17.5c0,9.6,7.8,17.5,17.5,17.5c9.6,0,17.5-7.8,17.5-17.5
			C239.8,233.2,231.9,225.4,222.3,225.4L222.3,225.4z M222.3,254.8c-6.6,0-12-5.4-12-12c0-3.2,1.2-6.2,3.5-8.5
			c2.3-2.3,5.2-3.6,8.5-3.5c3.2,0,6.2,1.2,8.5,3.5c2.3,2.3,3.5,5.3,3.5,8.5C234.3,249.4,228.9,254.8,222.3,254.8L222.3,254.8
			C222.3,254.8,222.3,254.8,222.3,254.8z M222.3,250.2c4.1,0,7.3-3.3,7.4-7.4c0-2-0.8-3.8-2.2-5.2c-1.4-1.4-3.2-2.2-5.2-2.2
			c0,0,0,0,0,0c-2,0-3.8,0.8-5.2,2.2c-1.4,1.4-2.2,3.2-2.2,5.2C214.9,246.9,218.2,250.2,222.3,250.2
			C222.3,250.2,222.3,250.2,222.3,250.2z"/>
	</g>
</g>
</svg>
