<?xml version="1.0" encoding="utf-8"?>
<!-- Generator: Adobe Illustrator 23.0.0, SVG Export Plug-In . SVG Version: 6.00 Build 0)  -->
<svg version="1.1" id="Layer_1" xmlns="http://www.w3.org/2000/svg" xmlns:xlink="http://www.w3.org/1999/xlink" x="0px"
     y="0px"
     viewBox="0 0 351.9 351.9" style="enable-background:new 0 0 351.9 351.9;" xml:space="preserve">
<style type="text/css">
	.st0{fill:#E8C36A;}
	.st1{fill:#00537D;}
	.st2{fill:none;}
	.st3{clip-path:url(#SVGID_2_);}
	.st4{fill-rule:evenodd;clip-rule:evenodd;fill:#3A3A3A;}
	.st5{clip-path:url(#SVGID_4_);}
	.st6{clip-path:url(#SVGID_6_);}
	.st7{fill:#0071AA;}
</style>
    <circle class="st0" cx="175" cy="176.5" r="168.5"/>
    <g id="_2-rightfit" transform="translate(31.431) rotate(45)">
	<g id="Group_214" transform="translate(8.89 8.89)">
		<g id="Group_213">
			<path id="Path_10" class="st1" d="M304.3-41.8h-64.6c-1.5,0-2.7,1.2-2.7,2.7v24.2c0,1.5,1.2,2.7,2.7,2.7c0.3,0,0.6,0,0.8-0.1
				l3.4-1.1c3.7-1.2,7.6,0.8,8.8,4.5c1.2,3.7-0.8,7.6-4.5,8.8c-1.4,0.5-2.9,0.5-4.3,0l-3.4-1.1c-1.4-0.5-2.9,0.3-3.4,1.7
				C237.1,0.7,237,1,237,1.2v21.5h-21.5c-1.5,0-2.7,1.2-2.7,2.7c0,0.3,0,0.6,0.1,0.8l1.1,3.4c1.2,3.7-0.8,7.6-4.5,8.8
				c-3.7,1.2-7.6-0.8-8.8-4.5c-0.5-1.4-0.5-2.9,0-4.3l1.1-3.4c0.5-1.4-0.3-2.9-1.7-3.4c-0.3-0.1-0.6-0.1-0.8-0.1h-24.2
				c-1.5,0-2.7,1.2-2.7,2.7V90c0,1.5,1.2,2.7,2.7,2.7h129.2c1.5,0,2.7-1.2,2.7-2.7V-39.1C307-40.6,305.8-41.8,304.3-41.8L304.3-41.8
				z M237.2,65c-0.1,0.3-0.1,0.6-0.1,0.8v21.5h-59.2V28.2h17.8c-2.1,6.5,1.6,13.5,8.1,15.5c6.5,2.1,13.5-1.6,15.5-8.1
				c0.8-2.4,0.8-5,0-7.4H237v21.5c0,1.5,1.2,2.7,2.7,2.7c0.3,0,0.6,0,0.8-0.1l3.4-1.1c3.7-1.2,7.6,0.8,8.8,4.5
				c1.2,3.7-0.8,7.6-4.5,8.8c-1.4,0.5-2.9,0.5-4.3,0l-3.4-1.1C239.2,62.8,237.6,63.6,237.2,65z M301.6,87.4h-59.2V69.6
				c6.5,2.1,13.5-1.6,15.5-8.1c2.1-6.5-1.6-13.5-8.1-15.5c-2.4-0.8-5-0.8-7.4,0V28.2h21.5c1.5,0,2.7-1.2,2.7-2.7
				c0-0.3,0-0.6-0.1-0.8l-1.1-3.4c-1.2-3.7,0.8-7.6,4.5-8.8s7.6,0.8,8.8,4.5c0.5,1.4,0.5,2.9,0,4.3l-1.1,3.4
				c-0.5,1.4,0.3,2.9,1.7,3.4c0.3,0.1,0.6,0.1,0.8,0.1h21.5L301.6,87.4L301.6,87.4z M301.6,22.8h-17.8c2.1-6.5-1.6-13.5-8.1-15.5
				c-6.5-2.1-13.5,1.6-15.5,8.1c-0.8,2.4-0.8,5,0,7.4h-17.8V5c6.5,2.1,13.5-1.5,15.6-8c2.1-6.5-1.5-13.5-8-15.6
				c-2.5-0.8-5.2-0.8-7.7,0v-17.8h59.2V22.8z"/>
            <path d="M260.4,335.4h57.4V512h53V0H141.2v512h53V335.4h57.4 M335.4,141.2h-53v53h-53v-53h-53v-53h53v-53h53v53h53V141.2z"></path>
            <path d="M370.8,194.2V512h123.6V194.2H370.8z M459,476.7h-53v-35.3h53V476.7z M459,406.1h-53v-35.3h53V406.1z M459,335.4h-53v-35.3
	h53V335.4z M459,264.8h-53v-35.3h53V264.8z"></path>
            <path d="M17.7,194.2V512h123.6V194.2H17.7z M105.9,476.7H53v-35.3h53L105.9,476.7L105.9,476.7z M105.9,406.1H53v-35.3h53
	L105.9,406.1L105.9,406.1z M105.9,335.4H53v-35.3h53L105.9,335.4L105.9,335.4z M105.9,264.8H53v-35.3h53L105.9,264.8L105.9,264.8z"></path>
		</g>
	</g>

</g>
</svg>
