<?xml version="1.0" encoding="utf-8"?>
<!-- Generator: Adobe Illustrator 23.0.0, SVG Export Plug-In . SVG Version: 6.00 Build 0)  -->
<svg version="1.1" id="Layer_1" xmlns="http://www.w3.org/2000/svg" xmlns:xlink="http://www.w3.org/1999/xlink" x="0px" y="0px"
	 viewBox="0 0 351.9 351.9" style="enable-background:new 0 0 351.9 351.9;" xml:space="preserve">
<style type="text/css">
	.st0{fill:#E8C36A;}
	.st1{fill:#00537D;}
	.st2{fill:none;}
	.st3{clip-path:url(#SVGID_2_);}
	.st4{fill-rule:evenodd;clip-rule:evenodd;fill:#3A3A3A;}
	.st5{clip-path:url(#SVGID_4_);}
	.st6{clip-path:url(#SVGID_6_);}
	.st7{fill:#0071AA;}
</style>
<circle class="st0" cx="175.5" cy="176.5" r="168.5"/>
<path id="Path_40" class="st1" d="M180.1,168.2c11.2,0,20.2-9.1,20.2-20.2c0-11.2-9.1-20.2-20.2-20.2s-20.2,9.1-20.2,20.2
	C159.9,159.1,168.9,168.2,180.1,168.2z M180.1,133.5c8,0,14.5,6.5,14.5,14.5c0,8-6.5,14.5-14.5,14.5c-8,0-14.5-6.5-14.5-14.5
	c0,0,0,0,0,0C165.7,140,172.1,133.5,180.1,133.5L180.1,133.5z"/>
<path id="Path_41" class="st1" d="M179.6,251.3l44.4-64.1c16.6-22.2,14.2-58.6-5.1-78c-21.7-21.7-56.8-21.7-78.4,0c0,0,0,0,0,0
	c-19.4,19.4-21.8,55.8-5.2,77.9L179.6,251.3z M144.5,113.3c19.4-19.4,50.8-19.4,70.2,0c0,0,0,0,0,0c17.5,17.5,19.6,50.4,4.5,70.6
	l-39.7,57.3l-39.7-57.4C124.8,163.8,127,130.8,144.5,113.3z"/>
<path id="Path_42" class="st1" d="M215.1,217.4c-1.6-0.2-3,0.9-3.3,2.4c-0.2,1.6,0.9,3,2.4,3.3c0.1,0,0.1,0,0.2,0
	c30.4,3.6,46.6,13.2,46.6,18.8c0,7.9-30.8,18.8-81,18.8s-81-10.9-81-18.8c0-5.6,16.2-15.2,46.6-18.8c1.6-0.2,2.7-1.7,2.4-3.3
	c-0.2-1.5-1.6-2.6-3.1-2.5c-30.4,3.6-51.7,13.7-51.7,24.6c0,12.2,29.8,24.6,86.7,24.6s86.7-12.4,86.7-24.6
	C266.9,231,245.6,220.9,215.1,217.4z"/>
</svg>
