<?xml version="1.0" encoding="utf-8"?>
<!-- Generator: Adobe Illustrator 23.0.0, SVG Export Plug-In . SVG Version: 6.00 Build 0)  -->
<svg version="1.1" id="Layer_1" xmlns="http://www.w3.org/2000/svg" xmlns:xlink="http://www.w3.org/1999/xlink" x="0px" y="0px"
	 viewBox="0 0 351.9 351.9" style="enable-background:new 0 0 351.9 351.9;" xml:space="preserve">
<style type="text/css">
	.st0{fill:#E8C36A;}
	.st1{fill:#00537D;}
	.st2{fill:none;}
	.st3{clip-path:url(#SVGID_2_);}
	.st4{fill-rule:evenodd;clip-rule:evenodd;fill:#3A3A3A;}
	.st5{clip-path:url(#SVGID_4_);}
	.st6{clip-path:url(#SVGID_6_);}
	.st7{fill:#0071AA;}
</style>
<circle class="st0" cx="176.5" cy="176.5" r="168.5"/>
<g>
	<g id="Group_212_5_" transform="translate(0 18.064)">
		<path id="Path_4_5_" class="st1" d="M226.6,210.4h-93.2c-1.7,0-3-1.4-3-3l0,0v-49.2c0-13.8-11.2-24.9-24.9-24.9
			c-10.7,0-19.3,8.7-19.3,19.3c0,8.2,6.7,14.9,14.9,14.9l0,0c6.2,0,11.3-5.1,11.3-11.3c0-4.7-3.8-8.4-8.4-8.4
			c-1.7,0.1-3.1-1.3-3.1-2.9c-0.1-1.7,1.3-3.1,2.9-3.1c0.1,0,0.1,0,0.2,0c8,0,14.5,6.5,14.5,14.5c0,9.6-7.8,17.3-17.4,17.4
			c-11.5,0-20.9-9.4-20.9-20.9c0-14,11.4-25.4,25.4-25.4c17.1,0,31,13.9,31,31v46.2h87.2v-46.2c0-17.1,13.9-31,31-31
			c14,0,25.4,11.4,25.4,25.4c0,11.6-9.4,20.9-20.9,20.9c-9.6,0-17.3-7.8-17.3-17.4c0-8,6.5-14.5,14.5-14.5c1.7-0.1,3.1,1.3,3.1,2.9
			c0.1,1.7-1.3,3.1-2.9,3.1c-0.1,0-0.1,0-0.2,0c-4.7,0-8.4,3.8-8.4,8.4c0,6.2,5.1,11.3,11.3,11.3c8.2,0,14.9-6.7,14.9-14.9
			c0,0,0,0,0,0c0-10.7-8.7-19.3-19.3-19.3c-13.8,0-24.9,11.2-24.9,24.9v49.2C229.7,209.1,228.3,210.4,226.6,210.4
			C226.6,210.4,226.6,210.4,226.6,210.4z"/>
	</g>
	<path id="Path_5_5_" class="st1" d="M250.3,257.6H110.4c-6.9,0-12.5-5.6-12.5-12.5v-56.5c-0.1-1.7,1.3-3.1,2.9-3.1s3.1,1.3,3.1,2.9
		c0,0.1,0,0.1,0,0.2v56.5c0,3.6,2.9,6.4,6.4,6.4h139.8c3.6,0,6.4-2.9,6.4-6.4v-56.5c-0.1-1.7,1.3-3.1,2.9-3.1
		c1.7-0.1,3.1,1.3,3.1,2.9c0,0.1,0,0.1,0,0.2v56.5C262.7,252,257.2,257.6,250.3,257.6z"/>
	<path id="Path_6_5_" class="st1" d="M226.6,202.8h-93.2c-1.7,0.1-3.1-1.3-3.1-2.9c-0.1-1.7,1.3-3.1,2.9-3.1c0.1,0,0.1,0,0.2,0h93.2
		c1.7-0.1,3.1,1.3,3.1,2.9c0.1,1.7-1.3,3.1-2.9,3.1C226.8,202.9,226.7,202.9,226.6,202.8L226.6,202.8z"/>
	<path id="Path_7_5_" class="st1" d="M133.4,267.4c-1.7,0-3-1.4-3-3l0,0V257c-0.1-1.7,1.3-3.1,2.9-3.1c1.7-0.1,3.1,1.3,3.1,2.9
		c0,0.1,0,0.1,0,0.2v7.4C136.4,266.1,135.1,267.4,133.4,267.4z"/>
	<path id="Path_8_5_" class="st1" d="M226.6,267.4c-1.7,0-3-1.4-3-3l0,0V257c0.1-1.7,1.5-3,3.1-2.9c1.6,0,2.9,1.3,2.9,2.9v7.4
		C229.7,266.1,228.3,267.4,226.6,267.4C226.6,267.4,226.6,267.4,226.6,267.4z"/>
	<path id="Path_9_5_" class="st1" d="M247.1,151.3c-1.7,0-3-1.4-3-3l0,0v-19.8c0-16.5-13.4-29.9-29.9-29.9h-67.6
		c-16.5,0-29.9,13.4-29.9,29.9v19.7c-0.1,1.7-1.5,3-3.1,2.9c-1.6,0-2.9-1.3-2.9-2.9v-19.7c0-19.9,16.1-35.9,36-36h67.6
		c19.9,0,35.9,16.1,36,36v19.7C250.1,149.9,248.7,151.3,247.1,151.3C247.1,151.3,247.1,151.3,247.1,151.3z"/>
</g>
</svg>
