<?xml version="1.0" encoding="utf-8"?>
<!-- Generator: Adobe Illustrator 23.0.0, SVG Export Plug-In . SVG Version: 6.00 Build 0)  -->
<svg version="1.1" id="Capa_1" xmlns="http://www.w3.org/2000/svg" xmlns:xlink="http://www.w3.org/1999/xlink" x="0px" y="0px"
	 viewBox="0 0 365.2 365.2" style="enable-background:new 0 0 365.2 365.2;" xml:space="preserve">
<style type="text/css">
	.st0{fill:#4F4F4F;}
</style>
<path class="st0" d="M322,132.2c-0.2,0-0.4,0-0.5,0v-8.3c0-15.9-13-28.9-28.9-28.9H77c-15.9,0-28.9,13-28.9,28.9v8.3
	c-0.2,0-0.3,0-0.5,0c-16,0-28.9,13-28.9,28.9c0,13.6,9.4,25,22,28.1v43.5c0,3.8,3.1,6.9,6.9,6.9h7.9v7.9c0,3.8,3.1,6.9,6.9,6.9
	s6.9-3.1,6.9-6.9v-7.9h231.2v7.9c0,3.8,3.1,6.9,6.9,6.9s6.9-3.1,6.9-6.9v-7.9h7.9c3.8,0,6.9-3.1,6.9-6.9v-43.5
	c12.7-3.1,22-14.5,22-28.1C350.9,145.1,338,132.2,322,132.2z M61.8,123.9c0-8.3,6.8-15.2,15.2-15.2h215.6c8.4,0,15.2,6.9,15.2,15.2
	V135c-13,5.6-22,18.4-22,33.3V179c-3.5-1.9-7.4-2.8-11.5-2.8H95.4c-4.1,0-8,0.9-11.5,2.8v-10.6c0-15-9.1-27.8-22-33.3L61.8,123.9
	L61.8,123.9z M83.9,201.2v0.3c0-6.4,5.2-11.5,11.5-11.5h178.8c6.4,0,11.5,5.2,11.5,11.5v-0.3H83.9z M32.5,161.1
	c0-8.4,6.8-15.2,15.2-15.2c12.4,0,22.5,10.1,22.5,22.5v32.7H54.5v-18c0-3.8-3.1-6.9-6.9-6.9C39.2,176.3,32.5,169.5,32.5,161.1z
	 M315.2,225.8H54.5v-10.9h260.7V225.8z M322,176.3c-3.8,0-6.9,3.1-6.9,6.9v18h-15.7v-32.7c0-12.4,10.1-22.5,22.5-22.5
	c8.4,0,15.2,6.9,15.2,15.2C337.2,169.5,330.4,176.3,322,176.3z"/>
</svg>
